<mxfile host="app.diagrams.net" agent="Mozilla/5.0 (Windows NT 10.0; Win64; x64) AppleWebKit/537.36 (KHTML, like Gecko) Chrome/128.0.0.0 Safari/537.36" version="24.7.8">
  <diagram name="Page-1" id="CU60T51ZtcRBLZKHLel1">
    <mxGraphModel dx="386" dy="439" grid="1" gridSize="10" guides="1" tooltips="1" connect="1" arrows="1" fold="1" page="1" pageScale="1" pageWidth="850" pageHeight="1100" math="0" shadow="0">
      <root>
        <mxCell id="0" />
        <mxCell id="1" parent="0" />
        <mxCell id="lw6XrF9lsO6SJeytqH2C-1" value="" style="shape=image;verticalLabelPosition=bottom;labelBackgroundColor=default;verticalAlign=top;aspect=fixed;imageAspect=0;image=data:image/png,iVBORw0KGgoAAAANSUhEUgAAA0MAAAJACAYAAABPI731AAAAAXNSR0IArs4c6QAAAARnQU1BAACxjwv8YQUAAAAJcEhZcwAADr8AAA6/ATgFUyQAANvLSURBVHhe7J0FmBzF1oYLLi6Bi0Nw7kUvcIEEdwsSSHD7Ce7u7k5wd7cbNLgFJ1hwgnuw4ATX/fOezFlqOz22O9Yz3/s8szNb3V1d3X2quk6dU6fGaBtJEEIIIYQQQogWY8zctxBCCCGEEEK0FFKGhBBCCCGEEC2JlCEhhBBCCCFESyJlSAghhBBCCNGSSBkSQogGRfFtKke172Ul8+9sXqUe19WyVvtetjKl3FvdfyEqi5ShMnnmmWdCjx49wg8//JBLKQ9vxJLf1UaNZ+3RPc8W5T6vWjzfMcYYI/dLdJVy7mVnZCHOv9jxxbZ39rn7cYXyT5a1M3T1eJGfUu5tPe9/MdntKnH+1T6XEE7LKENvv/12WH311cMvv/ySSylOWkXsbOX047wR8+933nkn9O7du2i5ON4/nYHzcP0///xzLkVUE55ToReWP8d836L2+POq5TNIO5dkoHJ8/PHHYdVVVw1//fVXLiWd5D1Pq7vsk+95xfsn/0/i29PyygfXsdpqq7Vfhx+bL4/k+dnP9813bU8//bQN9Pm7KF/eojb4M/OPpxWi1P26QiHZLsRTTz0VFlpoofaB5HxljPPv7LmEKJemVYaSFe2rr74Kn332We6/v8lXIUmnIqZtjytooeNj8h2Tr1xJON4/ncHPk6+8orIMGDAg9OrVKyy44ILh7LPPzqX+zZAhQ+zF8Ouvv9oz8efKt55RffFn4J1DnhMffvfp0yd89NFHNrBAx5R92Pb999/njh6dfM+TYxdeeGE7ls4ueUJcx/1YyUTn6N69e7jrrrvCmGP+/apL3kv+z9euxvvm2yeZnm8/h+1+zlKfK9dx5513tl+HnyPtXJ5nsuyF9k3Lj9+llk90DR+sjQcr/Zn5x9Mg33NJ7pekM4PCTppclUN8HZAsY6F82UbZGTjWgK6oBk2rDCUr2k477WTfSyyxhHVevOI98sgjoW/fvqFnz55h5ZVXDoMGDbJ0jj///PPDiiuuGBZZZJFw+OGHWzrQCfLjTzjhhLD88suHd9991/53kue/4IILwgorrGB5HXnkkbnUUeUiLy8XeAfrmmuuCcsss4ydO63T5Z01GjbyoFx0vFdZZRW7Hsr+/PPP27477rijfS+11FJ2jKgew4YNC/3797d7zmjY5ptvntvyNy4/fCMrfHtaUnZE7fFnwDN5+OGHw7PPPmsusgMHDgzTTz99uOOOO8I//vEP2we8k+rPMCbf8yT9zz//tHzo7JInxHn4sXy7dbczHRkxCu5t/DyS/0Pa/Xf8/7TnDKT7J0lavnzH6f47eXw5/6flnbY/n+T1JPfz7U6+/URp5LtvX3/9tQ1Wxko7sH/yGP7P91ySJNP9PMnjS8GP4TutXGkk94n/T24rVCa2UfZPP/20U2UXohhNqwwlOeecc+z7scces46NVyiUi8MOOyw8+uijYckllwwnnniipb/33numwBxyyCHh/vvvD2ussYalc5x/LrnkEht1PPPMM8Oss85q22O8sqMooVgdeuihlhejGw7lIq/HH3/cyhWDsnPrrbeGPfbYo7284PnGafw+6qijbH+UJ/KjXJNPPrltP/fcc+2b68QqkWyIROVwCxyWobHHHjtMOOGEuS2jYBvPyz/x/6KxiJ+J/47rTjKtnGfIMXR+UIgK5el8+eWXHazIye1idHwQCdccHzx64IEHwlprrWUDUwyEPffcc7ZvoWfIQNNZZ53VPtC00kortR/322+/2aAY9Z08GVQ79dRT7bmCn/faa6+1wa0jjjjCzoVSyzuBNAbDdttttzBixAg7JlkGFPH4OijDgw8+aNex6KKL2rcPfIGXifJifaRMp5xySnuZyP+bb74JO+ywg5UZV8LBgwd3kCkv39JLL91evu+++862lSPn4m8uuugiGzzlntPvcHgO3NPFF1/cnjPPgYE0nl0sN/7s4znLLl8+SOKyijxyfDwo6oPCiy22WPt50rjwwgutnMhWPBBcTK7Ijw99D/bhOuPzx9DX4hwM8gDl554gb9yHWN6Ae0Te8cCxEJWiZZQhJznygmIy55xzhtdee806rXQ4fv/9d+vE0jh98sknYeKJJ26vfN54MIp76aWXhpNPPjnMM888lpbEXxjjjDOOfeMKE+dVjC222CJMMskk9okbLc/XGx749ttvw2233RYOPPBAa8A451xzzRVmnHFG2+4k3SxEZeF5bL/99vYb5dqfNaNapHvHA2XVnx/Pwl8+bOelJxoDfz4O/3vHlIEU/o8p1IGM8XzpuPDtgVkg7ojEHSbvyLhcqQ53jptvvtkGoe65554w5ZRThqOPPtrSuZ/J5+kw0ET7SscQpYHO3hRTTGHbaHOfeOKJcNJJJ1m9Jj8GyegkOuRLp5U8dt99dzsXx7355pvW2cXiSBvOeUoBubnxxhttkItzUZb42LhMDAAmy0R59t9/f+tUcz94l9H5jkkrn98rUT4Mip533nntA6xrrrlmbsuowUqeCbLlg7W8q5NyUwo8I/bnPeKy6oOi7rIdnwdiuY/Led9997UPBAMywbF4PvCNzCFXKP9Afni+cH7aruSgrMNAMm6fKG2zzTabpZH366+/bvLGoG5S3rhH5J82cCxEV2kZZSit0vP7uOOOs84plpsPP/zQ0hnlwBVmv/32CxdffLHNE6ACxlAxS3U5Iy9ePMm84rKkMfPMM+d+5ceVm/fff9/ym2+++ez/NLgHxc4pugb32Bttt0ICz//HH38crePBfv7ySbMcitqRVjfKrTOldiDJlw5tcnCmUIcpad0WnYNO5bTTThsmnXTSsOGGG1q7H1tMkqDM0rnj2aKgMlDGQNMMM8xgg2cPPfSQvSvmnXde28aABgNZ7vYI5Etat27dbHDriy++MBftgw8+2FwkUWY22WQT62CWAvnhMTDNNNOEf/7znx2uw8tEm0OZGBiLy4Q8c35kaM899wzTTTed3Y+tt946l3toLx/X3JnyidEZd9xx7bklB1hj4rbGf+Nm7XIDhdojZBVF4qCDDuogq8lB0SSx3CMv/I9LWlxOl6sDDjjA+hmxrN9+++1WLh+URa6xPiXPT77IIMoQA8lzzz23peerD/SVCl2vEJWiZZShtAqFK9wNN9xgnVc6IHHHA9Zbbz0b9WASPJXUIS9GRJhLQMe2FMjr7rvv7pBX3AClEc9JoCGFn376yb6BkWk6VMAIJ7jJOQ01KrXDnwt4x4POS7LjwTPxl0+pL0lRHZL1kXtOGi4qPBM+aVY7fzb+Qqcjwgud0VB/oadB3snn6rKAO1w5VmRROlNPPXXuV7BOJs8Ab4A//vij/Tnz2WyzzWwf3hPskxxo4jkxP5BteBfEzDLLLGZ1idsB0hyCcHAc5/Dz0ckkoAquSMXg2HzX4XmnlcmtmXgpQOzejbx5HfA86Oh2pnxidGgTUJpRBBgULaZY+rOI5SYJzygmKau+Pd7P84Xk8ZAcCMbCCIVk3fsi+epKDP0tb1MdlzcUPwaYY3lDpiEutxCVpmWUIUYBgRF5XJbAG3UqIv7TjOY6jLI9+eSTNnLLCCD7UlmpkHwWWGAB6xihRBE5rBDk5Q1KnBcfLxfn8nI5ceWfY445wnjjjWeuEUBElSuvvNJ+sx8NLQ3IscceG15++WV7sfPNSDPkOw9lEJUnfnbIF7g7ANDxAO6/vyT95ZP2kozzE9XH6zoveBQclFk+7j/v28G/4xc6dZGXerEOZJwPeEeEuQVpFmn2F10jX10aa6yx2p8zn8svv9zSp5pqKvtOG2jCMgNvvfWWfTsffPCBtbmx5S/+zeAVz/KWW27pcE4+KMTFyHcN4EoSZYrlhTJNNtlkdqwrTwzAOFgCfH8vH5bszpRPpOMDrPQfGDRJEj8v/x3LTXJQlGeJIuIkB0VdTuLvWEH39CTrrrtu+0Aw1kEoJOtYJylnsUFZromBZNrUyy67rIO8AfWBOc2SN1FrWkYZmn322W3S67777hvWWWcdq4SMcOCSRKPECC4TAoEGAncD3FswNd90003mtkJ63FgxMZDRfvyy8X9Ng/1RTI455hibFBjnxeff//635UMHiHLFxOdCEcKihOsNEyO33HJLM1HHYHbmmnbZZRebV4DblU+q9OvHdSI+T77GUHSO+Jn5vaXjAXHHw3+7HCStkHE+ovb4s+MFn/Ys2E667wfxC91f5P5iz/dC93z8N8SyQFsRnz/uGInOUW7dwpqLcotLNQNMvBtefPFFGwXHyss7gm2vvPKKtfXM/8JjYIMNNsjl8Hc9d1B6mWvK4BVKtA9e4W1QjDifJGzzMpH30KFDO5Rp/fXXt30YmGEQhrkeLLuAm/XVV1+dy+Xv8nFd5ZZPpOMDrNx/3MaweLgsxoO1PI8Y34dv3uP0Ba6//npLY1D0iiuusN/gg6L0N3xQ9KWXXrLnC7ja0YZQjuR5HMpJOSgng7deTuQK17d8ss7+yI2fn/P6+akrwD4ogvRNsBD5dXAcLnMcF8sbbnmOuwnGA9pCVIyRQt5y/PXXX7lfoyj2f5JS9i+WB/g+yW9I+x2ndYWRL/PcL1ENRjbWbSMb/LaRL6pcSlvb6quv3rbtttu2jXwBtY18MbWN7JTYPj/99JP9P3jw4Lbffvut7ZJLLmkbqTTnjhL15Omnn7Zn9P3331vd8/rnz5d09hmptLT98MMPtm2TTTZp23777duGDRvWNvKF3jbyhd724IMP2rYkcT78Jp8PPvhgNFnw877xxhu2zwMPPGByJIozstNn9yy+x/6swNPiuprWzo4YMaLtgAMOaFtmmWXaFllkkba11lqrbaSiYfuS32GHHda23HLLWV7U9csuuyx35KhzjOwgWhkcjvv000/bdtxxx7aRHcy2hRde2PIcNGhQbo+OeDnj64jz8zTaE/AyLbvssnbuZJmA8q+zzjptPXr0sO8rr7yy/V5Qvs8++8zKhwwWK58ozjvvvGPPgfvdu3fvtrvuuiu3ZRT77bef3WeeGbjcIHsxHNerV6+2lVdeuW2kEtI2Uqlof27gsrr00kubrPbt27fttddes22w7777tp/HZT3+fvfdd9vLyfedd95p2wC5GqnImKy7XI1UhnJbR8H5999//w7nf/XVV9vbU69/1113nZ2D/L0+7LTTTu3ytvbaa1tbF+P3iHooRCUZgz85vagl4HIZnUiSL70cGBEBz4c8GfFgpNgp5xyVKJOoPUT/YY0hJrozigeM0BJdB5eCmWaayULhEtmJfZgfgjVv+PDh5pLDb8KSivrCcySCGyGMJ5poIkujTjIayvMlnehHRAlkBBPXR54h0ZReeOEFG91kpJbnObLzYMfHuJyQD9EsORcut7Es7LrrrmYJdrDssv/444/fYdRUVJ609jcLbXJnyqh3TeNQyrOo5vNKy7sa55PMiUai5ZQhaPRKWEr51JBkh3zPqli6nnE2qfZzk3xUjrR7WOp97cx++Y7x9FLzzEcl8kk7tlLlE6Oo1H2M86nFs+Ec0NXzSI5Eo9H0ylChSlesQqrCikpTrkxJBrNBPZ6TZGN0Kn1PWukeS54ag1o9h3o+766eW7IqKk1LWobqQb0qrz9eNRxC1Aav6/Wq80I4pcig5LS+dPb+67kJUTkyqQypERBCCCGEEEJ0lUzGaZUiJIQQQgghIIPj+qKByKQy5EIv4RfVQrIlhBBCZAMNkouuoBX8RCppykArKQhZbVilxKXTivelVWVBdaD25Lvnrf4sJIu1RfdbdJbMzRnq16+frdkS4x1XVYTKwP1Mu5eso3TBBRfk/mtuknLG/ciKguTPKUtlrhabbbaZrZbeSsT1t5XqLMTPW/JfW5C1888/X/d8JGn9FFFdvN3r0aNHOO+889rThCiFzFmGvIGJhdxf/KIyxPcz/v3ss8/mfjU/r776au7XKLLUqPKc1BEcRSt2SFq1zkL8fpD815ZWk7VCSBGqPbR7fIYMGWL/q/6LcsicZYjRJ4gbXi5Bgl9d0u57M5PV62VUjPpAuVu9XnD9PXv2bL8frYbLMJ2DVpGDWP5F7WhFWcsH8occguSwtvh9f+aZZ9QnFGXRFHOGJPRCjIIXsdPq9ULtwih0H4SoHapv9YP3X/wOFKJUFEBBCCGEEEII0ZJIGRJCCCGEEEK0JFKGhBBCCCGEEC2JlCEhhBBCCCFESyJlSAghhBBCCNGSSBkSQgghhBBCtCRShoQQQgghhBAtiZQhIYQQFUFrfGQDPSchhPgbKUOd5KKLLgpXX3117r+/uf3220OfPn1s5ftzzjkn9O3bN/z555/h5ZdftlW6f/rpp9yehdHL6m+0kJoQ2aCrC05+9tlnXarrtWgn8rX9MXE5/Dff5ZSPdwYr6v/444+5lMqhhUELM3z48PDXX3/l/iufRr+/aTKcJptxv6Uc2RUia0gZKpN33nkn3HzzzWGcccYJY401Vrj++uvDxx9/bNt4kR9xxBFhp512CoMHDw5bbrlluOWWW8I//vEP214Oeln9DfdC90OI5ueoo46ywaTTTz/dOmJpHdJkpyz+f8wxq/dK87Z/7LHHtjY9bvtjKA/tlZfL2y5vxwqVP0lXOuQffvihDcb98ssvuZTq0kxt9CWXXBJ69eoVjj322PDkk0/agGap8DwLPdN6Estwsv/izy9f2Zvp+QqRRMpQmYw33njh559/Dtddd1249tpr7WVFwwJffvml/b/ssstaGvs6/iKMadQGs5Fo5BeLEKKy0Omkc3bFFVeEzTffPPTu3Tv0798/DBkypL1DmmxH4/+r2VaMP/741vb/73//s/aftp4OZRIvD99p5SlU/iRdUe5GjBgRPvroo6J5VOqeNVM7zbV888034cYbbww777xzWHHFFW2g87HHHgu//fZbbq90Cj3PeuP9F2T4mmuu6dB/ceLyN/K1CFFJpAyVSffu3cNUU00V5ptvvjDLLLOEmWaayf4HXt40Hosttpi5N7iJGTcHGtf4ZfHrr7/aS3655ZYLSyyxRDjwwAPDDz/8kNsa7GW78sorW14nnXRSLrX14H7yaaYXrRDNSlfrabLzhbWdtnC77bYLq6yySjj66KPDE088Ef7444/cHrVjuummG63tn3rqqW1bvvYaBQ536TXWWCMsssgiYfXVVw8XXHBBB4sPvy+77LKw5ppr2j6rrbZaePXVV9u3OWeddZadA4sP0Ck/8cQT875D+vXrZ8f7+ygf1ezwZrnd9rJzD1Esb7311rDbbruFFVZYIRx00EHhgQceqJnVrVLE/ZfZZputQ/8llmH6JsA9iJ+hyyBKthDNhJShTvDFF1+EPffc0z6ffvppLjWESy+91BoOXOQYySzEMcccE15//XVrgO64447w7bffhpNPPtm20dDQGPHiHzRokL0cs/xSqQTVfGELISqD19POtlfJeh5bNb7++mtz8dlll13CSiutFA4//PDwyCOPpI7UV6u99LZ/jz32MEUNaK9pu2nTaa9XXXVVSwfc/h5++GFTkB5//HFzuxo4cKApREA5TzvtNLNA0N5jeaDD+c9//tO2+/0YMGBAuOmmm8K5554bZphhBkuL3yF33nmnvUNOOeUU2wZY1zge5bHY+6haZLndpux8kpY15s/cfffdYZ999gnLL7982Hfffe3/asztqgZ4sCC/u+++e7sMY41FRuM+h+PPEGuSy+D0009vaUI0C2OMbIwz1cvG0gLPPvusfTcSWIKwDqEMjTvuuPb/ZpttFh599NHw7rvv2jZ+YxXiZY6b3b/+9S9rbHhRHnDAAfZyZ/ImI4iHHnqojRY2An7faw0vIjoHjJjWkkaWs0JktdzVghFxmrhWvB/1koX77rvPrBSxVaPS0GaSP+0Dz5f5HXRM99tvP9tey2umvcad75BDDrH2mvJQPpQT2nkmq88///y5vYNZGM4880y7T1hyKPfZZ59tQXdi/H2C0oeyxT7zzDOPbcOFi7xxdZp99tktjXfI/vvvb+8QeOWVVzq8j6pJofeD349GJ185PZ0Pv9MgHVnEQodLHc8MstLuuAwffPDBNmfPcRnERRAZ5F3sMtiIuByi/GdB5kTjIMtQlUmrkB4xacMNN7TOGhV41113tZGl33//3VwvGFHEvWKDDTYIzz//fO7I5ibtRUPa+eefn/clJIRoLF588cUuKUKldGJoD+LOKb/9uFKO7ypxe0R7feSRR1p7vf7664cXXnjB0mnnuQ+zzjqr/e/MOOOMpsywDasSrnRzzDFHbuvonHHGGeaaFHdC/R2y0UYbdXiHYLXgHVLoHtSqLfUyJC0rjUq+e+bphe4b+7Cday107xsVl2GsPshwss9BQJOkDArRVIyswJliwQUXtE89GfkSy/3qyEsvvWRl++WXXzr8/8MPP7T/Hvmyahv5IrPfn376qe2Xj5EvtbaTTjqpbcUVV8yl1A/Ky6eWnHfeeXZOvmtNPa63EmS13NViZCexZe9HvWShf//+dt6rr746l1I6O+ywQ3u5/dmlfZZddtm2ww47rO2RRx5p+/XXX3NH1/d5//bbb+3tNe+IL774wsry8ssv5/YYxe2339626qqr2m9/FyT3AX9nPPPMM21LLbVU24ABA3Jb/j6u0Dsk+T6qJpyHT753Y9Y45phj2q+p0GexxRZr23fffdvuvvtue7c7vj1rJGUYueQ6hgwZMpoMNiJ+35tFDkXtkGWoE5Q68jPy/uZ+/Q1pjMKMrLBmdsY8zcjgm2++GZ5++mnbh3lIPrqIfzg+8Wl5CSFEMzGyE5P7NXr7Odlkk4V11lnHLDC4mOGKNLKDZssc1BNvr3kv0F7jBk3Zp5hiCptsz9we2nfaeVzXGH0nuAHwLlh66aVtLpHv88Ybb3QI2T3XXHOF448/3t4XzA0Cf4cwz8PfIW+99VZ46qmnbDt069bNvikbAQBEZZhggglsXhjzeh988MFwwgknmJsm0QazyieffNJBhr3P4XXQZZA5aS6DQjQTUobKJH5BJ1/WSWhYYsXJf3McDSist9565meMT67nx4sNkzXpTI7FZS7ORwghmh3aPDr9uBNfeOGF4Z577rF5lcwfTAtpXS9or2mjvb1G+fH2mnYcFzbCMxOli3mgzMHgmhz2n3feecOOO+4YllxySVPyklHKFl98cZvPQX50wIF3CG5Z6667rp37sMMOs3SHSGFrr722RUBDiRTlEb9zUSyZS4PLIlHkCDTAXK/kXKy4T5CldzaDELEM8zvp3ogMEkUPGXzooYdyqUI0BwqgUGW4vd4oxr+dtDSn0LZaU4/7zlwhoi5tu+22Flq3lvj1ZpWs1I9qowAKtZcFrBUEh9lrr73CxhtvnEstDRQC5tFgUeEz99xzW6csX1tIOvi2WjzvSrTLpeZRiXPVApe1Zpm4jqUOpROFBznk+uLF0ws9F7YRDIPvrLY78fUlr7XQtdebZpNDUTtkGeoCNArxdxpxhYwbF/8mLe143+a/hRCi2cG6QehprBn/+c9/2ken83VsSM+3rVp05nxxm19q2x7vl484X1E5ttpqq3ZL5MILL2yKUHyPCz0/tmX9ecRyl5TBYjIpRBaRZaiTcNvyNQqd3eaUsk+tqcd9bwTLUNZG9rJa7mohy1C2LEOdIW4v6/G8u9JeFzs2ud3/78o5q4HLWrOOyOd7DvnIWjtcjjw1muzFNLsciuohy1AnKVTRyt1G4xKjSiyEEIXxdrMW7WWyjY7pyvmLHZvc7v8XOi5ZVv4vVH5R+PlCvufQLJRzPewreRLNhpShBqDZGlYhhKg2tWw3O3OucjqMlexcJsvK/3rHFMbvjzr5pSF5Es2GlCHRUOhlJIToCo3SUSunHOpcNgZ6DtlHz1B0BilDoqGgIUsqRJ1p3HztDSFEa6EBFSFaF9V/0Rkyqwwh8BL66lOP+5xUiDpz/osvvjisssoqFiKVhQiTipHnWShvjTB1nlrLjBBCCBGj95AolcwqQ3RU1VmtPvW6z5U45zfffBNuvPHGsNNOO4UVV1zRFrZ97LHHwu+//96ef3weGs648VRD2nnqITNCgGRP1BO9N+pLXP/VFohSybRlyEn+1qfzHyff72pS6fOwqrZ/jxgxItx22222fgkL6bGSNiuJ//zzz7YP56bh9MazGRrRWj23JPWQHSEcZC7+pKXpU9mP+Jv43ZF2r/Sp7Ce+z/5biHLJtGXISf7Wp/MfJ9/vapI8T9yodaaBSy7YSB78/umnn8Ldd98d9tlnH1tdfN9997UF9n788UfbD5qhQa3Vc0sSn7deZRCtDXLnn+T/+lT+I9JJu1f6VPYT32chOkumF131zq2oHn6P67GInC+6WgmKyQrbUZ6WWGIJc6k7/PDDbX8Wb8sS/pwagQUXXDBceOGFuf/qgxZdbf5FV2Na+XnXEy122ZF61b1WR3IoOktmlaEY78hm7FIaFhoRXMvSGpNaNu4PPfSQWW0qGRWOa4rlhN/xdS699NJmLTrssMPs/6y9zFBAGuUlQDnqrUxKGWpNZSgmWedF9VAndNQ7BTkUtSGtfksORblkThnadtttU1/uCH6+DrwoHcQhn2JJ56pSlppqc9xxx4Ubbrgh919HpSduPMcdd9yw1FJL2TwivieYYAJLz+rIXqOUuxGUEM7fs2fPupejXrSiMpTv/SCqD/KGNV/v4GzLob8f4/dklpAcis6QOWVIiFIgpDaR5NJA4Vl22WVNAVp88cVNIUpCg0rVeO6553Ip2UDK0N9wfilDraEM8YzzdX4KbROVR/c7uwwbNiz07ds3dO/ePQwcODATz1HyJipBZgMoCFEO3bp1C3369AlnnHFGGDRoUDjqqKPCcsstF8YZZ5zcHh1RA5t99Pxah0LPWnJQW3S/sw/vv6wgeROVIJPKEBXVP8n/9ancJ3lvs8Zkk00W1l133XDuueeG+++/Pxx66KEWIMEVIK4pX0OqBlaI7BK3X/6tT3U/Ip20e9VIn7iM/t6L33/xvln4CNEZ5CYnmpLhw4eHKaecsj28dj4Q/zTFBxcj0usdAKBc5CbXkbQJ9c0Ochtfcyu4yYnGI1/bKhqXLLrJCVEJ5CYnmg5ewlNPPXVJDXmy4xjTap3orKPnNQpfbFiIeuLtr+qlqBWSNdFZZBkSLQ3in6Y0NYqFpVxkGepIo5SjHrRSAAUhRNeRZUi0Kk1lGZJe13Va7R6qsRdCCCGEaF2aShlSx7br6B4KIYQQQohWQW5yQqTgLkZZAkXWq7Pc00YhNzm5yQkhSkNucqJVUQAFIZoEjWsIIYQQQpSHLENCpKAACl1DlqH6I8uQEKIcZBkSrYosQ0I0GXqBCSGEEEKUhpQhIZoMGXuFEEIIIUpDypAQTYgUIiGEEEKI4kgZEqKJcBc5ucoJIYQQQhRHypAQTYQsQkIIIYQQpSNlSAghhBBCCNGSSBkSQgghhBBCtCRShoQQQgghhBAtiZQhIYQQQgghREsiZUgIIYQQQgjRkkgZEkIIIYQQQrQkUoaEEEIIIYQQLYmUISGaEK03JIQQQghRHClDQgghhBBCiJZEypAQTcgYY4yR+yWEEEIIIfIhZUiIPMjVTAghhBCiuRljZIdPPT4hEiy44IIdrCtUkyxZW5599tncr/rQo0cPu2cqR/1YaKGF7LvW137SSSeFa6+9Nuy1115h4403zqUKIRqdYcOGhb59+4bu3buHgQMHysNAtAyyDAmRwphjNlfV0JiHEEIIIcToyDIkRAr1GlXvKo1SblmG6o8sQ0KIcpBlSLQqsgwJIYQQQgghWhIpQ0IIIYQQQoiWRMqQEEIIIYQQoiWRMiSEEEIIIYRoSaQMCSGEEEIIIVoSKUNCCCGEEEKIlkTKkBBCCCGEEKIlkTIkhBBCCCGEaEmkDAkhhBBCCCFaEilDQgghhBBCiJZEypAQQgghhBCiJZEyJIQQQgghhGhJxmgbSe63ECLHQgstZN/PPvusfWeFRil3jx49Ak1Lo5Sjlan1MzjppJPCtddeG/baa6+w8cYb51KFEI3OsGHDQt++fUP37t3DwIEDwxhjjJHbIkRzI8uQEEIIIYQQoiWRZUiIFGQZ6hqNZhnK2nOsBPWSBVmGhMgmsgyJVkWWISGEEEIIIURLImVICCGEEEII0ZJIGRIiD1n1IKXc8n4VQgghhCiOlCEh8pBVf2nKLV9vIYQQQojiKICCEAmoEky8zzI+aZ5rQTHy71qhAAr1RwEUhBDloAAKolWRZUiIBLwAvCOZReaee+7cr7+tW3qpCSGEEEKMjixDQoiKI8tQ/ZFlSAhRDrIMiVZFliEhhBBCCCFESyJlSIgEMpYKIYQQQrQGUoaESCDXACGEEEKI1kDKkBAiE8hilx00oCCEECIrSBkSQmQCdbCzA4qrnpcQQogsIGVICFFx6AhXwpLzxBNPhKFDh4a//vorlzKKZN78L8tRY6HnIYQQIgtIGRJCVIS488vvMcfsevPy4IMPhn79+oUll1zSQjY///zzphglrQ78H6epIy6EEEKIUpAyJISoCLEy0hXLUHyc5/nrr7/a2jVbb7116NWrVzjuuOPCk08+OZrFCDi+K+cXXcOfWSwPQgghRKMiZUgIUXHSrDelEh+XptB8/fXX4frrrw8777xzWGGFFcIRRxwRHnvssfDbb7/ZdleE/FvUFt1zIYQQWWKMkS8uvbmEEBWlR48e1ik+7bTTcimdY8CAAWHw4MG5/0ZBvrHC44w77rhhlllmCWussYatoj7eeOOFnj17mmI2ZMiQDvs2O9wbngF09RmUS//+/cPHH38c9tprr7DxxhvnUoUQjc6wYcOs7ezevXsYOHBgS7WZorWRMiSEqDiuDJVDJS05KEbMMxo0aJD9/+yzz9p3K7HQQgvlftWO+BnuvffeYaONNrLfQojGR8qQaFWkDAkhKs6VV15p1piu8tZbb4Xhw4ePZgWKSW6bcsopw7bbbhuWWWaZsMoqq9j2SpQla6AMcV+WWGKJXEp18efAZ+KJJw477LBDmG666XJbhRCNjpQh0apIGRJCVJykgtIZyINACTfeeGP7/+SZzHvssccOiy66aFhxxRXD0ksvHbp165bb8reFqpUtQ7W49ko8byFEfZEyJFoVBVAQQlScSrxEk4qPfxOyGwVo+eWXD8ccc4y5wp166qmhd+/eZpFIQh6iuqjTJIQQIqtIGRJCVIXOKiF+HN8oPh4+e/zxx7ew2ieccIKtP8REfdzgJpxwwtEUphh11IUQQgiRDylDQoiKkFR+OquEcBx58Y2iQ3Q4LD8PPPBAOPbYYy2cNopRTGcVLyGEEEK0NlKGhBAVwZWfSigmnteuu+5q6wgxF2icccaxtDQ6q3gJIYQQorWRMiSEqChdUUxk4ckuac9Oz1MIIUSjI2VICNEwVNrCI4tR7Ui717r/QgghGh0pQ0KIpgXLhDrkQgghhMiHlCEhRFPiLlpy1RJCCCFEPqQMCSGaElmEhBBCCFEMKUNCiKZFCpEQQgghCiFlSAjRtMhFTgghhBCFGGNkZ0G9BSFEU9KjR4+WV4ieffbZ3C8hhMjPsGHDQt++fUP37t3DwIEDZVkXLYMsQ0KIpkcvdSGEEEKkIcuQEKJpcctQK1pHFlpoIbv25557LpcihBD5kWVItCqyDAkhRJOizowQQghRGClDQgghhBBCiJZEypAQQgghhBCiJZEyJIQQQgghhGhJpAwJIYQQQgghWhIpQ0IIIYQQQoiWRMqQEEIIIYQQoiWRMiSEEEIIIYRoSaQMCSGEEEIIIVoSKUNCCCGEEEKIlkTKkBBCCCGEEKIlkTIkhBBCCCGEaEmkDAkhhBBCCCFaEilDQgghhBBCiJZEypAQQgghhBCiJZEyJIQQQgghhGhJpAwJIYQQQgghWhIpQ0IIIYQQQoiWRMqQEEIIIYQQoiWRMiSEEEIIIYRoSaQMCSGEEEIIIVoSKUNCCCGEEEKIlkTKkBBCCCGEEKIlkTIkhBBCCCGEaEmkDAkhhBBCCCFaEilDQgghhBBCiJZEypAQQgghhBCiJZEyJIQQQgghhGhJpAwJIYQQQgghWhIpQ0IIIYQQQoiWRMqQEEIIIYQQoiWRMiSEEEIIIYRoSaQMCSGEEEIIIVoSKUNCiKZljDHGyP1qTVr9+oUQQohiSBkSQjQdbW1tHb5bgbRrbaXrF0IIITqDlCEhRNPhFpFWsowkr1VWISGEEKI4Y7Rp6FAI0aQstNBC9t2tW7emVg5oxv36+D3mmGOGb7/91v5/9tln7VsIIQoxbNiw0Ldv39C9e/cwcOBADaiIlkHKkBCiadlggw3C22+/bS/1Vmnq/Fr5/ve//x2uvfba3BYhhMiPlCHRqkgZEkI0LX/99Vf4/vvvW2ruDNeKZYjvCSecMIw99ti5LUIIkR8pQ6JVkTIkhGh6aOb0YhdCiPxIGRKtigIoCCGaHr3UhRBCCJGGlCEhhBBCCCFESyJlSAghhBBCCNGSSBkSQgghhBBCtCRShoQQQgghhBAtiZQhIYQQQgghREsiZUgIIYQQQgjRkkgZEkIIIYQQQrQkUoaEEEIIIYQQLUnZyhArueej0DYhhBBCCNGYaHFq0aqMMVKB6ZQGs80224Tnnnsu958QQgghhMgyKETTTTddGDhwoJQj0TJ02k0uTRFSxRFCCCGEyA7xmDi/e/bsqf6caCk6ZRlaaKGF7HvIkCGqMF2AW6/7J4QQQgghRH1QAIU6IkVICCGEEEKI+iFlqM50wjAnhBBCCCGEqABShuqMrENCCCGEEELUBylDQgghhBBCiJZEylANePrppy3oxA8//JBLEUIIIYQQQtQbKUMJKjmHJ85L7nBCCCGEEEI0FlKGElx88cVhhRVWCIssskg4/PDDc6kh/Pbbb+GEE04IvXr1shj8K620Ujj55JPDn3/+mdsj2O+zzjqrfZ+VV165fT2mWDE6/vjjw/LLLx/eeeedXIoQQgghhBCi1kgZinj33XfDueeeGw466KBw//33h969e+e2hHDggQeGwYMHh/79+9v30UcfHe6+++5wyimn5PYI4Zhjjgm33XZbOPLII22fM844I0wxxRS5raOsQ5dcckm46667TGmabbbZcluEEEIIIYQQtUbKUMS4445rCsvw4cPDRBNNFHr06GEWnS+++CI8/PDD4YADDgjzzTdfGHvssc1ytMUWW4Q77rjDjv3222/DrbfeakrTwgsvbPvMOeecYcYZZ7TtcPvtt5syhAI199xz51KFEEIIIYQQ9UDKUET37t3DfvvtFy688MLQt2/f8Pjjj5ty9PHHH4e//vrLlJuYWWaZxYIioDC9//779j3//PO3zw9KzhPC6rT00ktbMAUhhBBCCCFEfZEylGC99dYz97cFF1wwHHLIIabgTD311Lbtrbfesm/ngw8+CJNOOqkpPVNOOaWlvf322/adxlFHHRUeeeSRcOmll+ZShBBCCCGEEPVCylDEhx9+GJ588klTbnBv+/XXXy192mmnDYsuumg49thjw8svv2yBEp555hlTajbYYAPbB6sSbnW+zx9//BFeeuml8N5779l2WGCBBSwow3nnnRcGDBiQS61sBDshhBBCCCFEaYwxsiNedk/c3byGDBkymitYliG622677WZzhrAG7bzzzhYZjmv86aefLHgClp3vvvsuTDPNNGHdddcNm2++ee7oEL7//vtw3HHHmXsdihRKFEEVcKXbYYcdbN4Rc5Guu+46i0R3xBFHhNVWWy13tBBCCCGEEKKWSBkSQgghhBBCtCRyk6sScn0TQgghhBCisZEyVCWSFjMpR0IIIYQQQjQWUobKpFSlJrlfrBxJMRJCCCGEEKL+SBkqk1LnSBXaT/OshBBCCCGEqD9ShhLIaiOEEEIIIURrIGUogaw2QgghhBBCtAZShoQQQgghhBAtiZQhIYQQQgghREsiZUgIIYQQQgjRkkgZEkIIIYQQQrQkUoaEEEIIIYQQLYmUISGEEEIIIURLImVICCGEEEII0ZJIGRJCCCGEEEK0JGO0jST3u2QWWmgh+x4yZEhNFynt169fGDp0aO4/IYQQ4m94N11wwQW5/4QQQojiZMoyJEVICCFEPp599tncLyGEEKI0MmUZ8vPqhSeEECKmR48egdeZ3g9CCCHKQXOGhBBCCCGEEC1JppShThixhBBCtBh6VwghhCiVTClDY44pQ5YQQojC1NJ9WwghRLaRZUgIIUTmkQIkhBCiM8jUIoQQIvP4YJkGzYQQQpSDlCEhhBBNgyxEQgghykHKkBBCCCGEEKIlkTJUZ9yl46WXXrJ1lH788Uf7H7rq7lHo+OHDh4e+ffuGv/76K5dSOsl8Sy1nvF/aMaXmk49Cx1fjfKI4L7/8sq3/8vPPP+dSqvucnXL2oS6stdZa4c8//7S0SuWfj/jYfPkUK0ex83f1eCGEEKJVkDJUZ9ylIxkpj84K29I6LaV0ZAodD1NPPXW45ZZb2s8/bNgw6xD+/vvv9j9wbNrxSTcU/z/et9hxyTyAND8uLa+0PGOKHR9DWloZRNeJ77ff4/i5xM+pVErZv9xzeNmoCzfffHP4xz/+YWnxsXEe8W8/tjPE+SfzidPj/ZLkO3+h4/033/mOF0IIIVoNKUN1IK2Dk7TQeEcmrdNSqCPjeec7Pj53vP3bb78NH374YYdysK3QuZLE+/rv+Hzg/6elx+VJyytOS1Ls+OSx/J8sg6gM8b1Ok+v4uxDx84n3z3cs6flkoBwKyVExSpUp8krb18/BtrgcpVLoeP9dbp5CCCFEMyNlqA7873//CyuvvHJYbLHFwkknnWRpbhnyjspZZ50VVlllFVNQ8rHXXnuF4447LvdfCBdccEHo1atX7r9RLkpLL710eOGFF8wF79Zbbw0rrLCCnfOVV14JCy+8cPjpp59s3y222MK+l1hiCdvXO2q//fZbOPHEE8Nyyy0XllxyyXDggQeGH374wbb5PjGehnJF+RZffPHQu3fvcNFFF5m7FJYnytWzZ8/2c7sr1R9//GH/+zmXX3750c7p+/qxUM7xMdzrtGsQneO6664bTa6THW/kGhnFEpkPZBMZvP322+0Zel5JWTzggAPC999/b9sAxeuKK64Ia665ZlhkkUXCqquuGl5//XXbVuhYPx8uqjvttFM44ogjLN3ZcccdrQzISlo+sWzlUzS8PnBv1lhjjfb6QH4uv47XTbfSJs9ZrD5wPPUr7filllpqtDILIYQQrYyUoRrz0UcfWcfq6KOPDg888IB12MA75XwPGDAg3HTTTeHss88OM844o6WnQcfmmWeeyf0XwuOPPx5++eWX8MYbb9j/Tz31lCk3rmjx/2233Ra23357O088an/ppZfa9xNPPBGeffbZ9k4d5SS/a6+91jqn33zzTTjllFPs+LSOnysYhx12mHU2Oeayyy6zfP0aIWkxYJtvP/bYY60T6+f87rvv7JyFiI8/5phjOhxPR/Tkk0+2bUnydV5FeSDX/fv3N3kZNGhQWG211dqfh8uEy/U555wTZphhBtuWhh/35JNPmgK/ww472P8uiyhd/lxjuTj11FPDjTfeGI466iirC9SfSSaZxLbFx95xxx0dZMrPB3369AkPPfRQuyLx1VdfhSFDhpgLKddBPqXKVkxcH6hryfoQQ3q8zetDfN2cs9TjqQ+vvfaaDcJQ/7n2UsoshBBCtAJShmrM2GOPbd+fffZZGH/88cM888xj/wMdGBQkOotnnnlm+Ne//pXbkg7KEJYjJoDTQfr8889NuRo8eLBtR6lhH+/wb7rppmHCCScME000kf2fpgjEnSgUnzvvvDPst99+YZpppgmTTjpp+L//+79w//332/Z8nTGOozO6++67h8knnzxMMcUUYeutt+5wvuS5/X+OpbO6//7721wOzrnxxhu3nxM4bznHb7LJJtZBF9VjnHHGsWeAXE8wwQRhrrnman8mPK8HH3ywXa5nm202Sy9Gv379TFaRWZfFfffdt/25IovUF0DRQNk65JBDwvzzzx/GGmusMOuss4Zpp512tGNRkJAJPzYG6wmgrMA999wT5p13Xivz119/bfkgW14fXLby1QXgOOrDbrvtlrc+5COfPFP2Uo+nzFiDpppqqvb7pvoghBBCjKJTylApL2GRDh0aRq7pGK6//vrh+eefz20ZdV/POOMMczWKlaR80LGae+65beSazhtWINxoGFH/9ddfw9ChQ+1/f17TTz+9fefruCWfKx1b9t1oo43MjYjPrrvuau5EjJznkwOUM4itWnRqC3UYnWLnBM6bL69Sjk9SSrlEYehox3KNa6bD8zr99NNLlmune/fuuV9/P1cUY54prmE8V9y9eK4ff/yxRYObY445ckf8TfJYlwk/FlwGGKzAje/ee++1tLvuususQoBck+ayteCCC5qCU0i2wOvDTDPNZN/kUWhAIiaWZ645reyFSDt+l112KVpmIYQQolXolDLEy7XYSzyN66+/3j64nrQyWG9wV1l00UVttBq4p8AcIDpg3KdSYE4Q7m+MPDOqzVwBXGJIm3322UO3bt3a8/Znlu/Z+X7+/c9//tO+GZnGyhR/sATkY+KJJ7Y84ueM1crxYz3ccjx/YbLJJrNjcQfyc6Hs8c1o/7jjjmv74Q7olHq8W+X8+pzOyLIYnTS5Bu738ccfnyrXyWcRQ3Q3x58rssjz9I/Lhctq2hw7joVYJlwuOBaQAS8Lc44efvjh8Oabb9rcppVWWsnSOYeXgeOfe+659ryQ6XzXQn2AL7/80r45l9cHjknWpaQ8g193XHbk2Y9l8MMp5Xg+Xh+EEEKIVqbTbnL5XvyFeOutt6xTxAjxlltuGa6++urw6aef5raOTmfO0ehwvYyaM48HSw2Tm5k/4x1y3ItOOOEEm1dEByYffm9wg6NTxqRpRn7HG2+8MN9884VLLrkkLLPMMrZPKaA0UQbKRmeK/HEFYvSbstB5Y+SdDuLTTz+dOyodruvf//63WblwX2LU/sorr8xtDWHmmWc2Vyq/PuQAOD+WM87JfA5G1Dnn22+/bedkO6PrHEvHFugEXnXVVfa72PEO+zWjbNUTl2vuLRYdl2sHCyZyzVwVlCK//+yfhG3JZ8RzxarhskiwDNoT5sz5c0femV/D3CCeO9/InssE53aZQI79WMd/Y71C9tkfBc8VcNK8DHE+LlvJMgP/Ux9wecVFcMSIEVYml1mgPuAyCyj5afUheU4UG/BjUULBj+dYP36BBRbIW2YhhBCi1em0MuQdh3Lx41hklA4rkcaYy8Kk4jjCVLJDlOxkZBU6iEceeaRFWWNCMxOyk2sMse3QQw+1/RihTrt2v4+4BdHBmXPOOdtHiXGNI8oUbnOlgpLBIqy4/bhbEOclChXlW2eddSy/ww8/vEN50spGGp3SL774wkbVmXNE3r6NziWTupns7pG/fBvQaeac6667rp2Tyee+jWvknt1www12LJPrsUSA7+NlTjse+N1Z+RXpIIO4yXG/mbuTlGvkHrlmTg8y9Mgjj+S2/I0/o7jeO/zvcoEsIuPkw3kd6gsDAUSEY5CA7SjL8bHIBOVgmytryXMBsoX1ZO21186ljNovli0vgx/Pd7LsLmdeHxgIwmpGoAb24+P1gXNSduoD6V6+ZNmJdufb/FivD6UeL4QQQohRjDHypTl6T6AIjI4Co5PldCrpEPDSzncMRWGi8oorrmidaEY9eYk7fl46KVmFayzlnpW6XxbgWpi/tNlmm9ncJlfaXPSa5TpbmVhe/XeaDBfalo9y9oVy9y9GNcqKJZf6wPy+arurFSpTpe9VPcEyzvVk+f0ghBCi9nRKGcJtAyVlm222yaWkj+Ymeeyxx8Krr75adF+2M6rJOXB9IfISFhDmw0CrvexcCYxBacSyVM2ODM+oUP5xufyZUi4sA8ljsVRtvvnmFunO3Y6SuEzEx6WlQZy//y7n+Jg4L1E7YvnxZ+DyU0ni51vOs07uW+xYrie5T77r8fqQHBzg2PgbSi1DKcc3M1KGhBBCdIZOKUO4oBCNqFIvWX95+2+I8+Y3LzpfU6dZXnbxdVeKauRZLmll8M5fpUfCG+F6RUeKPZNSn1mzPNtC9SFWhkTXkDIkhBCiM3RKGXr00UfNwlMuHEeks0LQaYiLxAr0W221lVmGeNmBXnbZIK0TKESpSH5EOUgZEkII0Rk6pQx1FuYMMWneSevsEA4aBYgPiyaC79MMc4aEEH8jhafr6B6OQsqQEEKIztDpaHJdwfUvD45AKFsWArzlllvCNddcY3OR8LXnBa+XvBDNi+p319E9FEIIITpPTZUhV4J4ec8///xhzz33DHfeeWe44oorzH9+hhlm0Itd1ByXSyGEEEII0VrU1E0OFzmixOECx8rohRQfipXcLjc5UUnSZEwIkU3kJieEEKIz1FQZKtb5LLSdbc0SQMFveXytNXwMLYsUn/rhdTv57Uj+K4PfW6eVZF7KkBBCiM5QUze5Yi/mVnlxc53Ja/U0far3EfXD73/y2/FnpE/XPsl7KYQQQojC1CWAQmfQi11UClkhhBBCCCEE1NRNrqs0y5yhfv362TpN6pTXFuTn/PPPl2JdBzbddFNbY0wyX3m4p0TmTLu3rSTzcpMTQgjRGTJjGWomhg4dOlrHRR306qNOUv1IU/75X3LfdfwepilDknkhhBCiMLIM1QFFxas9fs+HDBmiDngdiO8/6BlUD1cyW03mZRkSQgjRGWQZEkLUFClC1UX3VwghhCgdKUN1hFFM/yT/16eyH9EYxM8i+Vufzn2cfL+FaEQko0KIRkHKUJ1g9Db+pKXpU7mPaAziZ5H8rU/nPk6+30I0IpJRIUSjIGWoTmhUTLQiyL1kv7roHousIXkVQtQTKUNCiJqRtGaIyqN7LLJArABJXoUQ9UTKUJ1Q4y+EEKJeuDJSS6tMfE69A4UQjYKUoTpRyxeQEEIIEePKCN+1eB/FCpAUISFEIyFlqMnI91Ir9WVXSyUt7Vy1PL/IBi4T5chGpeWoUvlJvkWjwPpTCy+8cPj6669LVk5Yw2mRRRaxY8olVrquv/76sNpqq9laWGeccUb4888/29NYL8rThBCiFkgZyhCldKTil1q8f/wiSpLcr1J4vvnOm3auzpw/X/6iOXCZKEc2fN9iMl9p2SmWX73KJVqXRpIl5H/YsGHh9NNPD1tttVV47LHHwtZbbx0++eSTcNppp1nao48+amn/+Mc/ckcJIUR1kTKUIQp1Bl9++eXQs2fP8OOPP+ZSRt8/3/HJ9FI6ZGy76KKLwtVXX51LGR3Pt1C5k3TmxV1O/qJ5cJn/6aefcimjU0zmS5Ud9kM2L7zwwpJkvhDk4/kl5b3ccglRjEKyVA85++KLL8Jff/0VVlpppTD++OOHCSaYoD1t5ZVXbk8TQohKUEq/coyRO5Xf+6wTmNQBU32W6ex18Kjil1f8Px3DzTff3EbaeJmkkXa84+nJfdJ455137HwjRowI44wzjo3gLb744qF79+65PUbheZWSZzE+/PDDsNtuu4X//e9/Yeyxxy47P7/nuIZ0tSyifCp9/5GpV155xWSekeR8nad8sleubL799tt2vu+++y6MN954YcwxxzSZn2666dqPL5ZnnF7ovL7NZf7aa68N4447bt7989FqMo97Ffcu6++HanDJJZeE6667zuQXhePwww8Pzz33XNhpp53C3XffHSabbLLQv3//cO+994azzjorzDHHHLkjO8K93XHHHcMRRxwRzj333DB8+PDwn//8Jxx99NFhmmmmse3keccdd4TJJ5+8/Zhddtkl3HXXXWGSSSYJiy22WPjtt99sGzzxxBNh2WWXDb/++msuJYTBgwebzAvRLOywww5WF+T+WTt4780///xmiZ5ooolyqenIMpQheLC87J1kBye5PUna/v5xkvukQWcQCxQvVz6M6KGgJPG8+KZc/ukMvMTpHCbLK1oTlwGUEsgnW/lkxdP5LkUmGWDAAoW8o5xwzFhjjdUh/zjPNNL2TcO3MdiAzHON8f6drUOiNWHwCiv+vvvuG+67777Qt29fG8BymeL78ssvN2Xl5JNPDrPPPntRGRs4cGA455xzwk033RS+//77cNxxx4Xff//djst3rNdVlC0G0R588EHrHPL7zDPPtO+HHnrI0qQIiazg8p78TvLaa69JEaox9E1feOEFa5uKMvLBZYYFF1zQPlmns9fxzTfftO21115tiy66aNvqq6/eduGFF1o+v/32W9uLL75ov0cqKbbvr7/+2nbCCSe0Lbvssm1LLLFE2wEHHNA2snNl21566aW2hRZaqO2JJ55o22ijjSy/9dZbr+3VV1+17aVw//33t+23335tu+22W9vgwYMtjXwpw5NPPmn5LrLIIpbv0KFDbTsky3XggQe2jRTYtgEDBljaSKXH9nv++efbllxyybaPP/7Y/l9ggQXa7xsfjimHzh4nKkNn7z8yv+eee5qM9u7du13mf/nll3Z5yyfzyNbIjpptc5lPymY5Mj+yI9m2//77t+2+++5Wd8DL4HWpmMwj03FddLn/9ttv22V+2LBhts3vGR/kv1z82FaReZ4v1ys68tFHH7UttthibVdeeWXbH3/8kUtta3vmmWfaevbs2Xb11Ve3LbXUUlY30mQlThsyZEjbwgsvbHLv3HzzzW1LL7201Um2Uwe+/PLL3Na2tpHKTdviiy/e3razD+Xx/4E06jhpaqNFo1CsPpQD7Tztk7f9ovqssMIKds+//vrrXEp+ZBnKEIcddpiNFt9+++3hsssuM/cCGPkcRxs9xm3h9ddft5Fs9h/ZqQynnHJKh1GLkS8xi9pzzz33hGmnnTYcddRRuS2jiPdN8vnnn4eRnVT74CoRw2gh+TIKievEMccck9syerk8KtG6664bZpllFhvBHNnYhBNPPDHsvPPO5oYEXC9wzYwcxtcqmhfceRh5RlYuvfRSe/7IJc/fv10WkLOkzDPSHRPLJjKPPJYK8xr22GMP+3z22We51FF4XXKZj/ONZf62226zcp166qm2zeX+4osvNjclXIymn3562+Yyj8sQLk1CdAba0L333tusP2uvvba5lTJC7e078+BwXcOtMq1dTUvDJdqPJ/+RipC12/5x2IcPaZ5PWn4xbPe8hagnpdQHl/E0SMcqwfuCOiC5ri3c72LtjSNlKCOgNDz++ONh9913N1/sKaaYwiLuOHElo7N15513hv333z9MPfXUYdJJJw2bbrppeOCBBzoIBh0v8unWrVvYcMMNw5tvvtnhRVZIiDbaaKMw1VRThRlnnNHcLmI834knnrhDvl6u/fbbr71cm2yyiZ2Hz8EHH2ydStwoJpxwwrD++uvncvy7LGpMWgdknjlwSZl3dxuXm3yytfHGG4dBgwbZvk4smxtssEF44403Osh8IcqR+bfeess6nGnl+r//+7/2crnc33LLLTbviTIVQ3VAlAMyhhLEPB5CaTPfJ3bXYZCNQQaUpVLceMiPAQq+kUXm0yHX1Evc23Af9aAm7PPDDz906AgWkl/f5nkL0Sgk5REl59NPP7W5pLh8DhgwwPouDODxPujTp09YdNFFbaBh9dVXt3qAXIvaUmo7ImWowcj34LDEAB0x3yffhDAqKNB5Y7SPz6677mqV0f26wSe4AnmRXgmf1jhfOofk+8cff7SPpqMAebmYIO6TaWedddawwgor2EuZyYZxw+Fl1kuyuYmfrVsckXnH5dThNzKRT7aY2xb7C+eTzVJJkz3S0vKlA0i5+I1iFpcrrovI/fLLLz+azMfE5/V94jQh8sG8M/ciwKJDe4vsuPzMN9981oHDOkmHrtA7wNtfvAwYrEDpv+aaa0x+UYL+/e9/m0KEck8+P//8s0VfLFXJiuU/X10Qoh5goWdgbq211grLLbecKTq9e/e2ID777LNPOOGEE8x7Aev/k08+GT766CN7t1BfsMzmC2wlGgMpQw1GvheAKz5ffvll+z4oSMkXCBWPEWq+cRXCpYwPEaX4JtCBj6wn8ZdjV6Asyfw9XzqM/KaxiMvFxFmg8WACLQoR0Y9i4muMf4vmIn62KBXw1Vdf2Tf4oADE++aTLZd5KCSbpZIme2n1if3I25WkuFzPPPOMfXsABuT+kUcesRdpEj9f2nnT0oRIQoeMjtoSSywRbrjhBvMYSAb/QJnB5ZmoS1gy8ykvXl/mnXdec/GkI4gyxWAbQRno8B144IEWjIEFVLfcckuL5kQdySevniffkmnRqMw222w2GZ/BBaYrlMoBBxwQ1llnHatzonGRMpQRmEdAZWReAi4KH3/8cbjqqqs6dOb8ZYIrDyPQzJdgdJ0XG65qTz/9dG7P0TuBfmwyvVw4Pul25C84Lxejil4uRhaBYw499FBzMcJtA/clRhcdXPmAxqichkhkF5d5Omg8c5d5J5bVfLKVlPl8stkVknmCl23KKacMCy64oJULKxEdU9yKKBfn5thDDjnEXELTZJ58nn/+ecm86DRYHpErlHAGyFBSUFxYows5JKw2oNwwor3GGmt0WPA0rmfUsaeeesoWR8XtmtHyY489tsOoN+sHoVAxF5XIi7gMcR4f3CAPjvM2nXpAGtYr30eIRoO5oEsuuWSHulEI5Pv88883S5IP+CLrlXjniMojZShDHH/88TZKzjoRhEldc801rWL5yyoeoSbUKf+vt956NiKIn7h32tg/OZpdqILGL8Ni5KvsngflYjsvXsqFewbbGBXH6rXFFlvYfCEmqXvHFmaaaSbze8fFiG8op1wimyAvsczjh50POmVpsuUUk83OkmYZcjgfo/JeF3mZovT7OQmSwPUh97hgIPPu5uoyz4g9I4tC1AoPqMCH9Zv4pu65i11aPRIiy5TyHqANd8UmDa8XzA9lHa4FFlhgtIGFrr5vRHXQoqt1oCvXweOiwvE9dOjQsNlmm9mIWr4K6vs3IpUoW6l5+D3HdapR70czU879Tz7T+H9fXLiQzEOjyr2Xq5zyxfuWc1yrybwWXRVCdIZS2lWCgrBAMZ4KzPnMx5xzzmnRcD0Srue77LLLmlcPUwFkAa0NTLn49ttvw/333x/++c9/5lLTkWUoY3jF4psKnA/fVm4nqFCelSDOv1jZSilLudcnGp/kMy31GZcjW/XCy1VO+eJ9G/W6RHORbHur/V4Qop7QruaTedybiRKHJw7LN8SKkO/j7TJBFVCWCFRCmtrr7CBlqIHpygsoXyUslmd8XFfOn49yGgc1JKIcGlFeqlGHhKg2ybpU7feCEPUEmU7KPF4IBx10kLmH4saPhQG3N9yxWaOO/XF/5pvjV1llFZvKQAArkT2kDDUwycqZhIg+uIQUchdKUizPmHL2FaIWdEbm64nqkMgihRQeybRoNpBpZJ7lDgj8QRRE1rTDLQ6FZ9VVV7UlP84777zQq1cvC/RElFKO4dOvXz8LhCP3t+wiZUgIIYQQ7UjhEa0EVp8rr7zSAtVgDXrxxRfDJJNMYoFtWAj+6KOPDvPMM097eGzWF2I9LSDADWvEjTfeePZ/kkIDC6JxkDIkhBBCCCFaivfee8+ifTIfiLk+LN/Acg4HH3xwGDhwYNh5550tpHaSSSed1CJ99u/f36xEpUSYE42NlCEhhBCiydEItRCj6gHrabGUAYrMgAEDLFLcUkstFc4888xwzTXX2NpAE0wwQe6IdFhomMWKS113SDQ2Cq1dB5rlOrKEQmvXF93/2qPQ2q0NC6OySDVwX1Tv6gP3nfv/3//+N5xzzjnt7lWitqDwMB/ouuuuM4sQC3Oj8DAfCKWIdd2qqdgotHbtUWhtIYQQooV57bXX7DtWhKQQ1R4fb0YxpQMuysPvX5I4Pd8+wMLtBD7A2sPcn3feeSdMOeWUYZdddgm33nprOPDAA8Oss84qC0+LI8tQHZBlqPbIMlFfdP9rjyxDrc3iiy8efvvttzB48ODMRF9sVnDBwjLx6KOPFnW/EpWBRen/97//hXvvvdeixBEVjmik66+/flhxxRXbgyHE0H5Uq62UZaj2yDIkhBBCtDgZGutsaqrZyW4VkrKcJtt//fVXuO+++ywsNpHg7rjjDktnDaCLL744XHjhhfY7nxVIz6h1kTJUJ/SSEkIIUS3o2Klz1zjond81krIc/z9ixIj2wAcHHHBAeP7550O3bt1s/R8PjT3ffPOZEiTFVKQhN7k64NeRZWhMGIXJWqMiN636EMt8Fl9GyTI38jUkyyY3udYEN7lff/01PPHEE3KTqzNLLrlk+Pnnn81Nbvzxx2+J+lgLhg0bZtHgbrvtNnNB474SCGGDDTawtYBil8RibXa123S5ydUeuck1OFlXhmgwYkWomg1IJWkGJTSrxPc+lpcsyE7aS5L/G6ns+e6pZL71KDRJH1kW9aWR2o2s8swzz4S99947rLfeemYR+vHHH8Niiy0WTj31VFOOmBeUnJtV7L7rubQ2sgyJsjjppJNMEdp3331zKdkg36hPvnRRWdLucyPee28O43KxsB7pSZlvtPJn5R5XC1mGOiLLUOMQW4YUQKFzEAzkrrvuMmXnrbfeag+NzRwglJ9Gjwgny1DtkWVIVAU6GoMGDbLKnLUQofk6hK3SUaw3afe5Ee89ZfJyIe98HnjggfDwww+bzPO/02jlz8o9FkKIUvniiy8s8MGaa64ZjjzyyPDGG2+EKaaYIuywww42H4jQ2P/+978VGlt0CSlDdSbuXDU6hKqkYSJu/6uvvppLFaI5QZFwmf/ss89M5qVcCCFE10jr98Rp/H799dfDUUcdFfr27WvrBH355ZfhP//5TzjiiCPCLbfcYhHjUIrUJotKIGWozmSpImNq9AaL0XIhmh3JvBBCdI2k8pPW7yENF/wHH3ww7LjjjmGzzTYLAwcOtDWCVlpppXDRRReFSy65JKy++upy+xQVR8qQKJm4M4i7nBDNDC/wpMwnX+pCCCEKg6LjbWfyG5hLc+2114Z1113X5mY+/fTTNh9o4403DjfeeGM47rjjwvzzzy9XOFE1pAyJksBP9+OPP879F+w3aUI0K0zSTcr8m2++mftPCCFEqbg1KP6mTT3ttNNsPhDBmT744IMw/fTTW6S422+/Pey55572P/v6cY4GpkQlkTIkSiK2BHmjJLch0czgIpdEMi+EEOVDNDgUHBZCXXjhhS06MKGxv/vuu3DuueeaNYhIkARF2GijjcKEE05oxyWVICctXQqS6CxShkQqyUYl7gT6tthtSI2QaDbSFJ94DpEQQojCfP311+Hiiy8Offr0CYcddpgFpZl88snDdtttZ4ulkjbnnHNWxAUun+LUaOgd0nhIGRKpxI3Ku+++G95///3cf39DGmZtyEojJEQpuMwn5Rp5d5kXQohWpJTO/Ntvvx2OOeYYc4E755xzwueff25KD8oP0eC23XZbU4paEfWXGg8pQyKV2OLDCLn/H1di0tJciYTIOi7zLvcO0Y4k80KIViZfZ572kYVld9lll7DJJpuEm266yRb+XX755S089hVXXGHKUZaiwSXfATH5thU6RjQmY4x8aJl5aviYglYYry347zJxnAbQxcV/zzHHHOGaa66xNCGahWIyf/XVV+ftEIj60KNHD3s+ej+MYvHFF7eO6BNPPKFQxHVmySWXDD///LMpCkRJyxLUqbS2Lk7/6aefbD7QgAED2r1IJppootC7d2+bFzTjjDO2t5+F2s1i2xuZYmVfdtllLWqeqD0MYP7zn//M/ZeOLEOiIB999FF7BC0qO3ijBskoc0JkHcm8EEKMIm77YkinHTz99NNt7Z8TTjghvPfee6F79+5ht912s/lARIWbaaaZ2pUE/47zi3/79kYk7R44bIvLzv+F9heNhyxDoiCXX355OOOMM+w3lT0pLqTtuuuuFiFGiGYglvl88LKXzDcWsgx1RJahxiHLlqE0XnzxRVsXiAVS//jjD+sHLLjggmGDDTYIyyyzTBhrrLFyezYvtDVJBSj+32HRWIJIcG+wDD300ENmNUvbV1SWFVZYIXz77bclWYakDImCbLrppuG1117LO8pBhZ577rmtA6nKLZoBlBwiHvnLzeWa/z1tnnnmMf930ThIGeqIlKHGoRmUITr1RJBFCaJP8Oeff5rSs8oqq4T1119/tIhw3lY2G8yLIhw4Cs4333xjn6+++qrDN9vwMOAbuA/cD0AZmnjiie23qC5ShkRF+PTTT83nNx9xY4dJfLrpprPfQmSVTz75JKyxxhodZNubyPh/fkvmGwspQx2RMtQ4ZFkZonM/cOBAmw80fPhwS5tsssnCOuusE9Zdd90wxRRTWFpniNvZRiNZtiuvvNIUQb8H5YAL4RFHHGFzq2QZqh1ShkTVwBROJR4yZIgqs2gJvN2RzDc2UoY6ImWocciiMsT8n+uuuy7ccccdVnb417/+FTbccMOw6qqrhvHGG8/SWoV33nknbLHFFuHHH3/MpXSEd0OyO42ljDlVU001Vdhqq63a3eRqYRlKKnOtSDnKkAIoiLJQZ1AIIYRoPuhADx482OYBo/TceOON4ZdffglLLbWUrRVE5Ni11lqrqRWhfPaB2WabzdyjY1fAuD+UPG7KKacMM888s80vxY1wxIgRuS21QX218pAyJIQQQgjRomD5QfFBAdp9993D448/btZEwmKTfuqpp4ZFFlmkgyLQrBRSInALjK2s+RQn+PLLL82axNyqCSecMIw5prrbjYyejhBCCCFEE0FHPa2zHqcx/+Xss8+2eZLHHXdcePvtt8PUU09t1gzc4/bbb7/2NYKalfh+FFJucL+9++67zfW0GNwv8vL7dsEFF2ieUIMjZUgIIYQQoomg453W+SbtlVdeCQcddFDo06dPuOSSSyw62vzzzx+OP/74cNNNN1lEzW7durXv38zE15e8VgIe3HLLLWHjjTcOO+ywg4USd4Wp0H3xfbAGoWz++9//tv8LKVtdpSt5V7Nc4Pknv2OqXYZiSBkSQgghhGhiWA/ovvvusyAAW265pVk56NATDOGyyy4z68VKK60Uxh577NwRrcuwYcMs8MGaa64ZjjrqKFuEmzlARNDj/nDfSum877PPPhZ0qhbuhYWUs2J05dhS8PyT3zHVLkMxpAwJIYQQQjQhTNxnTTQCH+y///7hpZdeCpNMMokpRITMPvroo0cLDJCPeo/eVxPWD3rsscdszhRzpbhnRCIjmugxxxxjFqIDDjggbLTRRiUpjOyH5S0tkmM17mMjP5ssyI2UISGEEEKIJuKDDz6w9W1WX311s3Kwhtqss85q7nGskbbTTjtZyOdS8M5svUfvqwEugoQQRwHac889Lfw5yk7fvn0tet65554bevXqZWnch6233trmVcX3InlfllhiibD99tvnDWlfjfvoeb766qth2WWXDZ9//rn9Xwz2X2aZZcJnn32WS6k88fX6+b744otcSmMgZUgIIYQQmSQLo861gnvx9NNPm3Vjgw02sIVSCY292GKLhTPPPNM6/WuvvXbZobGr0XmvJJ2RgbfeesvmSLGwfP/+/cP7778fpp12Wgseceutt4aDDz44zD777KOF0n7mmWfCb7/91uGc8W/CaR966KEWMKEWfPzxx2GTTTaxxXGdRn9ejYiUISGEEEJkDjqhpXb8OtNhbiQKlR+FBzcuXLN23nnndusGoaD/97//mSLEIrzNGhq7VBnweVMEQ0CBuP766y2sOIviYj0jjDjBI1igM86Te0/kvQMPPNDmAfHbA0zEz4XjsMYVW+CzKyTlAMsWChFufg77VFohKiR/Tin7JOnMMdVAypAQQgghMke+Dl9aB6vSncNak1Z+XI3OO+88c4Xzif64vu2yyy7mCsccF1zj/NhG6XiWS1fLzZo/F198sbm+MW8K6xlr/7Cu0g033BBOOeUUU4jGGmus3BF/g5Jx8803W0S5e+65x6xquNNdffXVdq+5t3xQNHkGs8wyS0WVzt9//z2cccYZYZVVVjH3O8ofu8Ch/P7www9h5ZVXtvlNKEfcr5dfftnmhXEMgR+eeuopW/MoH7iv+f5YD7lHvj+WsLPOOsvcBblPKIRxGQg7vtVWW9k2LG1E3UPxBOasHXbYYea659vIl3tGOdkvvr6999673YXOXeqwcCLjxx57rCmv1SBzylBagyCEEJWilBdvVjsVQrQCyX5Cs9XX119/3TqYRDu78MILrQM877zz2lpBdNw333xzC5KQJKv9p2Ll5vnGz9h/EyyC+0QnnLk/n376qYW5Rkm8/fbbrVOPW1usvMT5sO4Sc3+w9nCP6dAzjwjFaLrppgs77rhjGH/88e0YFCSUkUovrnrSSSdZKHSUXtZ+QjniWlwpQEnBJe/ee+8NQ4YMsefO/cLVD3e9u+66y9z9UDhiRSK+TsCyyL3y/U877bT2/U8++WRTrs4//3y7byiIXgbyYe0lrh+rG0oL4cSxVgLlx5JGQAqiFiK77mZIOXFR9Ou788477RiO93OzD66Jl156adh1113tfleDzClD/gCTD1IIISpBKR2GUvYRQoyiHu/r+JxZra9cg18HHVBG1bfZZpuw2WabWaeUbYTDZq2giy66yEbu3brRLG1UKbLDtfr10jHn3nCPCHbAb7atsMIK1uHGooOlBMtQGuxLHnT8USqfe+65MNlkk1lEOZSi6aefvv1cdPxZnwnlCGsKARN8WyVgHhDWqO222y7MMMMMYdJJJ7VAD4MHD2632nA+P2d8bq6dY3Dno2yEC0eRcnxf7i+/OQfXxv64VxJwA6sNZUDJSZbh8ccfN6WGY3HBnG222ewYLGcEY+Aefv3111ZWwrl37949TDHFFGHTTTdtV2jIe9CgQe15o8itv/764cknn2xXmPhgwZt88smrOg8rU8pQXCnihy6EEEKIxsM7W7WmGfoIXAMuUFgjCI2NJYPOOZ1JOvuM5hMEYL755htNCYr7S1mm1OeI1QeLwhprrGEWDqwNzN2hI85cIO5Tz549zQpEnvnuD1YI5hPhVod1gvt+7bXXdlA0HaxAnGuPPfbIGzmuK+AuhhKMsrDwwguHHj16mFvcV199ZcoCcB1p10LEO7dSofhxzWlucqRzDpQNt5BNMMEElifKE2XgOC8D6yZRBhQdLwOKOAoUViqsaezP8ZQThQpFx8sSKzTkzXbPG8sa87lwa3RFCwhsUWmLW5IxRhY4MzUGQchQcYUQGYF2pdSXbpKuHCsqC88BVxERbLSW0dknnniiKh21LFHvOspcCjrWBDago5kkrXyExmauBK5R33//vaXh0sUoORYJFKJSr6lZ2yiuC+WFeT+PPPKIdd7pNM8999xmvcBqNu644+b2HoXfi+Q9YU0hXMlwE6MjjqVj3333DQsssEDJc4AK3Wdc7HiODz30UJh44olzqYVBWeA6cIVk7peXIz7Pa6+9Zu563AMUGubZ8D+y46HT2Qd3P5RCrDMx7I8CQqCNaaaZxtJ8f/JEUSIyIQpP2nwolFACd3DvWK+K+UMo7RxL+4MliOAUvpYVz4lIfZSFvDkWK1x8fY6XjSiIlK1cGcYayHO9//77iwa1yJRlCI00Sbk3R1QHPQeRZboy6lTtEStROnPNNVfu1yjoNIj6wyg94Z3pmFSboUOH2rmwqDQ6Lp/x+5POJPMv6IDSCfzxxx/DIossYh1KOqx0jlGoSn3nFuqgZxXuCZHgPHoerlZ0pLEKYdHBbZB5QklFCPxexPcEVzTuN4vQkk4H/PLLL7cB+GQHvRCVvs9TTjmlueGhLLib2zvvvGMKoFt5UKx4xtSxOLx2TLF2kHLHZY/3x8KEQoiLYVwGD7CAZYf9mRfEvKqbbrrJlCDA7Q4FimeCtYeod7gpMp+IY8g7vj6U0OT11YpMWYZE/cGMCYy+VrriC9GISOYbG15hei6j00iWITpqzHVh1N0neBejs88VZYhzMaG8Vmu9FKOYZYhOIB1y3OFwM2LEnI78aqutZpYgrBSS8WBrAWFRYB4QVhbuEy5UzAHq06ePWUYKkZSpjz76KJx44ok2R4VOPUonVo2ZZpqpLCWoFDpjGQJczbC6PPzww6ZEUDYsP8iUl/HUU081RY5w6sxtwqKFsogyBW5hKdUy5GlYd9gfJQtlHKsOckwZ2O5lwD2RfanbzE/CioRSxPl5ZkSBow3gONwOuR4CfbAddzvypm6QNy51XB+R5VgLysuWXOi2FMqxDEkZEmWhjqFoNSTzIos0ijJEF4OO0Lbbbhvuvvvu1ChnlQRliMnjTPpuFGVoqaWWCj/99NNoyhAdXTqodBw9nDCdPjr3dCqZrN5KbU6aAozCw32js401AqWFfWiXmWy/9NJLmxKQJC0vhzxQPOm0Y2UiQAIWJtwP08JrV4LOKkNOoesplc7mkXZcJfNKUolrhaZ1kxNCiFrjjTINtBCidLxT43WIUMfMIVh00UXN3ev5559vr1dYRwjhu+KKK9qIM+up4Hbj4D7mx+IO9dhjj1mnFljLhHDJnl5rF5tiJDt3jHgfeeSRZs3ARQgXIsIZH3HEERYUgTVb6LxVokOYJeLrxRpx5ZVXmiVhr732sqhkRCpDbghocM4551hnt1xFCGV5iy22sIVoUVBZ34b8CFNeLUWoEqRdT7nvpM7KU9pxlcwrSWfz7gpShoQQQghRcZKdGkb3cUvChQ13GEIVe7hf1sjBPYe5GgQNYMQe9xmfk8D/KDy46qAwoThhNQBcg7CyXHDBBaZgNRrcB66BsjMx/f/+7//MrQnL3XLLLWcT5K+66iqb59KqwS68Y886NDxP7gVr3eDKRuAIFCIWkkVJ/te//pXqxuZ5uNzFygLyw+KquFAiZ6wThHyhlOIK5s8oS6QpDWnXQFqha6vmdecrT/ydpNj2aiBlSAghCpD2YhVClAf1Z5dddrE5HqxlwuR3Iqah0GAFQEHafffdrZOKKx3hjePV6nGHIuIUE6wJFcxkbBQl5hygZDDPgDkPjPpXer5HV+HauYaDDjrIJofjKsf1YQViUcpyIpZlmXxtKEohc6ZQVPr162dug1gKcS3DgkMgCdbyQW4gTQmAZFvt/yNHBEhg8j7bOAfKJ/NS4vueL99GId/9c1zOkpBW6NoKbfNzFju3k9wvX3ni75j4GgqVq9JIGRJCCCFEVSHqYjx52xdeRNlhkUaUIhQZIngxH2SnnXayORZ0igG3qL59+5oV5d1337U0jiGKFZ2mGWec0b4bZZ5QEjp5hHree++9zcJBxDgWomwlkp1bnh3WPFzhDjzwQHOFROHBHRKFqH///hYZEPe1ZCc7rXPuaX4e5Gq//fazDyGg5513XotsxvygzszbqTfFlAPfnnZvyiE+3vMsdm4n3s/zyVeetPRSz1NppAwJIYQQoqqguKR1dOgQMYGdbQQToEPsH4KW0GnFVeqKK64wtync41CKfETflZ/PP/+8w3e9SXYE+T700EPNIpZPYUvrHDYjuDKy1ozPmUIpIiz+IYccYooiFkJfqBO54L4kZSdNljwNWcMlE+sbgTSwxOFmh+LFGkTNboVLuzfl0NXjHc8nX36VOk8lkDIkhBBCiKpCxzZfZ9/XMsEl6pNPPrHO7Jtvvtm+lgnziug4MbpPUAVC7XqQBDrNrGXia5XgCuWBFepJsiOY1vFL3o9G6hxWGoIVEE4ZBWW77bazMOtcb69evczah7KLhcgthk6aIlQIQpMTuZC5acjK8ssvb5HjUEJbffHhatAsCryUISGEEEJUlWKdpqOOOsoigzE3hLkchx12WLtSg7Kz7rrrmmVl8803bw93751kJsHT8SXAwqqrrjraQsiN2mFrJuUn3z3GqodFj7DVBEYgQALrAaGw3HrrrbYGDQvq57PWcI9KeX6sUYMr5WabbRaee+45c8k8/vjj7cM8tFLzqSaUoZmeOTTy9ZRTNq0zJMpCa66IVqNnz542Us0odStMchbNQSMtulpv6ObU831VbNHVZoP2koVMWfgT+cOyh4I633zzmVJLSOyuyGTyeXIuAlF8+OGHdm7WaWKxTtZpahS6us6QKB+tMySEEEKIpqPQ+G2+bRq4qx7xPWe9J9bsQeHZbbfdLMof1j7meOEGx5wdLHelKkLFnieRBFmbiTlG7733nlkQWUh13333NUUo7fhC8iNaFylDQgghhKga+Tqgnl5OB9U7whyTPJ5tnclTFCa+l8n7yj1nng7rRK222moW4IKQ6YRQ33XXXS0gAoERCJCAZT3fc0lLz6fEsu/tt99uLpW42hFtjtDqrFH13//+t92Cn3Z8vjyrCeWtx3lFxzahEFKGhBBlUUrDUg8atVxCtDr5OoKenrY9WZ/j//nNMcnjPR3iPNU2dI34XvKb+8l8LtyPmPtDUASitxEGfZFFFjGFiGAJzN9JuqrFecXkS08+O+YgsV4V88S++OILOx9rBhGWfdxxx83t1Vj4PRO1J24TCtEUc4aSF1vqxVeKWp+vUni5yyk/c4bYl4XjsnjNrU4lZTWrcp+k2HVozpDIIlmaM9QsbUk+mmnO0FdffRUGDhxoYdBZx4fnRqjw3r1721ydmWaaqUMAi0o9W+YdERWOdYJ+/PFHC8eOUoQ1CstQIbwM9ZSz5ZZbztwIRW3heRNevSXmDCWFuxRhp1JUCq9kSbp6jkLHl5J3sX38PpVyv2K6el2iOuR7LnF6uc+6EPny8vOVIidp+yTT4v+L5Z0vvRCVvCdCiPKpRR3sTNsg/mbo0KEW4W/NNdcMZ599tilCs846q83PueOOO2wxWebsJCP5VeLZvvTSS6Ffv352XpRKFC/mJlGWNEUo+ay9DPVs6yV/9aHU+96UlqFKUI08a41fQ6WuhXxYHRwUTa5x6ezzjo8rJY9KnMepZF6FKOe6+IaFF17YLENPPfWUWYZ8W2fKK0StUDS5xiGLliHaONzeGFUfMGCAhcSmHUTZWXrppcP6669vniKxtbycdjFuZ/MdQ/S1c88911zuKMv0008f9t9/f2uTs2alVzS52tNy0eS8IuHGQuVE4GKobPmgg0MH/4cffsiljKJYhU7med1114WVV17Zzs/oBbAwHAuKeZofk/xOQpk4xk2qhcqfBH9azMYsSFesoSmXSuUjqoPLDS4EPPdicgax/MfPN/6d7/h4H+Q/lvV8aZAmR3Ga1+NSXAqSeX388cdhjTXWaF+QMUnauWPi+sJ3vH/8P9+F7qsQQlSbarVBLHzLmj2sDYQ1CKvQJJNMYms84SJHGOs0hSRuL4sRt6VpPPDAA2HDDTe0fhQw/4gFdRdbbLGaK0J+nztzv+mPPvzwww2xELDIT2aVoTShzFepClVQ31aukHOcH8Oq16eccopFM2EUjol8pDGJkFj3xMAnzc+V/E7CyAt5F9svDUZO7rzzzvbGopxj0+hM5RfVw59H2nOJnzW/+cRylEbatmTehY6HWNZj+adOxPJfC7p3727Rizr7svR7Voxi91UIIapNJdsg2jQ8PvbZZ5+w1lprhUsuucRG1eeZZx4LX027uvPOO1uUuHIopT2N+fTTT60MWIBwxZt33nnDZZddFnbaaSebm1QP/D6Xcr8ZiHvllVfCeeedZ4obFqH99tvPLIOiccmsMpQmlOVWuphyG5W4MzR8+HCrAB4/HzM4lRiTMiPjxNkvxzReiY5WV+6F89NPP4XXXnvNRoVeffVV+wBl8zT/VkWvDS4XafKR9sw7I0f5jsknUy7rq6yySgf5p05gLS1X/sHrQCE5roSMJ0HmcQdxeXeZhziNfdhXCCGyQlqbSTvG4qgbbLCBDV49+OCDNiCLVejSSy+1D3N0xhtvvNwR5RG/Twq12bxDcMf7v//7PyvDhBNOaPORWJtojjnmaEi3OL8e+oC48qHArbjiija/6cILLzQ3Vdhrr73C+OOPb79FY5JZZQhBwx+QsIqHH364CWWyoh1//PFh+eWXtxj4xWBEG/eaRRddNGy99dbhyy+/tPyImpZ0o8ONh7RffvnF/t9uu+3sGx9t3Htg++23t+PxFfa0JFT+s846yxQmIlZRiZ577jnbRgPCeRih4RopGy5NDmZXtnEcxw8aNMjS3cUIVyn/TcPCvpi1+/TpE1544QXbN434HmLWxTRNxd50003t4x1U0vmfbfzGn1fUDuQf2Y7lP6nEuPy/8847uZT8IP+88GL5B5f12I3O5crlnxcoLLHEEpZOWZB/WGqppSwNWU9STP6pe2uvvXa7/PO/g9812zgOJSyWf9JwsfPfuFt4PUL+n3/+eds3DWQeVxCXdz5e9jgduZfMCyHqTfzOTiPeHr8jWAuof//+5lbPu4L3xFRTTWVtNwERCF39n//8Z7SACF0h+Y4CyvfWW2/Zewf3u++++84irxE5DgXN57sVu85aggL5+OOPW3lZYJb309FHH23zqyi/3zOulz4g79ZiEe9EfcmkMvTuu+/aaAELeTExCkFE6PwDmHjvuusu62z961//srRC4AfLysU33XRT+Oabb8JRRx3VnlexSsgEP6ByPPvss/abNI5/7LHH2tOSUHkwPWOCHjx4cDjzzDPDFFNMYcdxTkZJmGtx9913h2mmmcYWNXPwQ+X6mZCJEnbiiSfmLSchMPH/veeee8KUU05pjVy+ff2aoVu3bqZAxSSP43/2YV9RG1z+Dz300A7yHxPL/2yzzZZLzQ/yT8jSWP5LBdkCl3/K4nWCFchJS3uhcg7kH3nkWJd/IA98xSm/y/8xxxzTPhcI5czlH1cE5D85T8hllWuijOQz9dRT23nTlDNIk3knvseSeSFEvaGNS7b9SeLttHu0mbi7EQCBNpa2lAGvE044Idxyyy2mlBC2Gji2WP6lkK+/wYAabTMDTS+++KIpYyhoKGdJd7xKlKMr0Oe68sorwzbbbGOubywoy7zY9957r8N8IN51/n5hAVj6ebIKNT6ZVIZ8pIDJ0kTlYOTZodIxZ4bOIHMW5p577tyWwhCvno7SdNNNZwuI4TsLpTQ2aXAMx/onCaMHrJx84IEH2mg8rkSs0DzjjDPm9hhlWqU8RMHYaKONLDiCd/gYaZhzzjnNjY17wOJjxOFPY4899rCGhXwYafnwww9H6zjmA+ubk3YdXCcj+vVuqFoJl38mueJD7dYYpxT5Tz5Ll3/kJCn/XSGfXOCLTjmRfyw2XFMs/5wXv3HmACG3TKRNk3/c1bgHWLKS8u91cLfddmuX//XWW69DPmkwKpkGefEhX/ap5IipEEKUS7721dtt/2aAi448FnL6A8zjpM3lf0JUo5DwHnfrhbd1/tuJf5dDWjkpA+8a5gNhZadvQoAE2tZGcYmLr5f3DN45eNYk3x/x9XEM/6PYMdBdr3lOojwy+TYnSAC+pHT4cHvBqgIukIxKL7PMMqN1EgtBng6j0IxYuMDna3CSJCsEkJZ2PKMJ7DPffPONVkb/Px4Z8QrlHT6sRJi3maSHuZuOWb4OHp1cIF8iwvCdT3GKYT9GQGKTbxK25es8iurg8o8lp2/fvib/8bPBmujyn4/ks3T5Jz2Wf/5Pe+7JtLR9CoHMIoO4YSTxvHiZOCj8yFpS/qnrKPcck/aC4uPyD6yGzqhdIfnn3jE4kXZNniaZF0I0Kt5O4X6GJZzBo9NOO80GgmaYYQZTiBiMOuigg8K///1vUz543/txfMe/vU/iaV3h66+/tgh1u+++u70H8FzgXcbgL/2TQng5akV8vfw+4IAD8s5/jcvG+wNPBvpwlbhnovpkdmiTEV7cgBZccEGr0AiiCyNuN8wpYOJfIUGMhZeRaiAN31nMxDQQ4447rqXFAQKSIX89nzi/Yrg7HPOZSqks8T64Sd1www02mnP++efbwmN08NgnLksy3/j/UsrK/tyHBRZYIJfSEbZjBqaDKWoL8o/bFwqPy7+DWZ45Zch/qWCpdJAvrCix/HuwAH7jLpCUn1LkKWbyySe3/BkUcDyPfC5svp1j3PXN5d+3xeXgd1p6sXpA2ZDrtG1Am1PspS2EEPUAK8u9994bttxyS5vfiOsbE/lZGwhXZIIlYJFJrnWT7C84tIP5tpULbtF4udx+++2mMBCBF8sQg8KlWIMqVY7OgqcCUe14LyaJy4ZXAwN9pVyTaAwyqQwxEuyj4YxyMMobd1zovGOepKPkMep9e/wdCy8uRSg5jKQwcY9J3TD77LNbFBUaEGDEHFOu09mGgpF4yskIN6sr43P68ssvd+gcOpwj7iByvZyTUR7M3/it8n9cFkbR42uNv8GtPaUQu8rFUKaVVlop95+oFS7/QOPs8s+z54NcEVQBq6HLLdvjj+PyQmhs5P/NN980+Xb5J4oP8o/yDcj/VVddZb9jPJ9SSZN/wpEi/0nZ9PL69fFi59vlHzcPJz7W9/ff8XU7vj0JFlEnuQ9WIU2GFUI0Ep9//rnNJWVwCAsGc3CwYhCdDYXo1FNPtfnF5bZd+drIcuCdRaAdrFS4NDM1gPcISy50NkpdvWAg213V02CgEktcoX1qhb/zkt+dIe3YruTXaGRSGcIdhgl2VGxGiA8++ODROlD4vzJXgGgfREaJO0Xxt4MWTyPCRD4mE2LCBSa+kT/ze+ggUnmJUJUvn3JAAWPeA/M1iDjChPC0ENWcIz4PHVTCXjKBfuONN7byOC6csfIUl5VPuQJM5y8+v//mnsedRlEbkH+UCOSfcJ6x/PNseT7IP64QBBbAgurP3j+OywLyTyAG5DuWf15U5E+ABeSf0ca0AAOdaRSRf2TZ5R95Rv6TeXmZSUeuqTNEkGN/Rjjj8sTHpuVTajmJwuejehwT3ze5yAlRXUqtpyLYYBJzL5kywAAw84cJGkW7jSsc74F4GkAtwUqFhwIWKqJ74kXCQPUZZ5wRZpppptxe2QD3Pu4p4bPxjojfCcBvBvgITpFmOeosybrA8+W9V86i5HyzJAT9NcKAd4b4Wp20NMfPh5KeBcYYeaMz2ep4ByUfaduLHeOUul+zE98HlEQsVzGYtstxxRKNQTny3dW6UOj4Rs4bUPwYXY1B5vFvTw6+CNFoMFiCFZWw+Y0wSl2MStTZRoXBHgZ6iOTW2TXXHP7HQo8rHJ4vuNozQIbbGZ1PosTNP//8BV20KnWvPZ+0/FDSjj32WLP2M4iFtYSBL49UlyW41wzeYdVigBz3PpYv4V3gSywwx5X/CXqVBs8GJYopHEkXxXLgXkNSJvz/fM8W5QTrHJ5EzAtO2ycm7TxOvnPEcD7uE94pPi0kplAepeRfCng1MQWGqLu4/hcis2/0YjcquZ25FYx4880Hv39GUtKoxEOoNi6o1SS+D2muclgfRDaIZd9/E3yhGLEMdEbmCtWlrtazauYNaRYg6oEUISEqTyXqbLMQt7XcF/8fdzPm/WDFZ240bs0oF4TDxnsFjxn6NsXmqlTqXns+cX5YLCjHtttua9MOUA5YIgGrSiMrQmnvN6ww++23n3ntoAjhhXPFFVdY5Du8KDz4BDBXNw7WUy2418nnF/+f3JaE91exfbgXaedx4nT2Tbt3wH6eV5J8eYNvy5dvNWiZtzprncQfFnfE9SerFBKkaoDbEMTnlYtcdiBUdrIO4EdeDtWQuVo2duWCzCcVHyLNNRqNfA+FKIVWl+Hk9cdtLVYVFpzGdZlOOAEHCHgz77zzWgecfgwj/nH0zVpD+flgQSFAgs9VxbrO3CCWT4gVtEZ83vE9p3y4GHItWBWw5jEP6/TTTw+zzDKLvRf44KrtUyl4HsWU0EowdOjQdnc3rC+8k7jvuM5hgWQubb77SzrHo8ixSPo666xj4cKxLLINSzLKNm7o5EXU2tjNjX7DVlttZVZnpmqw2DnHcu9QgokSSNmwAhLEya1m5M1vz5tz77333pY32/w6sFqRL5H4sKT6M8l3PZVEQ5yiJJioz/wOF0p+kyZEV6iGglUpXOYpIx/mKjWizDfyPRSiFFpdhrn+ZIePziWdQ9zeUHZYwJ39sOhffvnl5pJFxzJtfkotOo8xn376qXWcUQr4jZvelVdeGbbffvsw4YQT5vb6m0Z43vnuEUoGHXWCEBGgZ6mlljKFbu211+7gbso1MDeL5R2Yb46bYjXx8vq9i+8hyhCL5jKHnqkLaXNvgWNQnrk2otFi2ULBc8UDV0DcGwnEQcQ/AhsRtZXtgHvmnnvuaUoQSgvX7udifjLPHssZCjtKly9GS94EaSJvAjuhaHIMeZOn74OyxbHM948Xqo2vtVpIGRJ5SVYmd4tDMGMXubRKlyWyXn5RPbAOIR98cJGrRaMsRKuQ1va2anvsbQtLGxAgB1e4/v3725wbXM2Yb0MwKKwRLKZdyAqR1k5V475iFWDeEhHrHnjgAVN8CDBAZzp2IXMa6dkm7xFlIyARQamY19OtWzezdBCEi0GwfG2/P4tqvhsoW6H8N9tsM1vTaMopp7Q5gm6tSWObbbaxgBrMW8IyxOLtKC0ofihVKLBsJ9gFijiL47qFB4sO60INGzbMlBWUH6xJHEuEW6xG3CvmCPXr18/2oexsx8JG3kSAZmkKrJxYpWLrEWm4UtZjoVopQyIvycpEx5A0hNbd5qCajUA14Togq+UX1Sd2lcOML1kRonJQnwjMg9vNDz/80J7WatB5ffDBB80C5G5mrO2Gexkj6oz40+EtNgm8EJW+r2+88YZ1fn1ZBpbZYJkDOtD5wnc36rNFIcAagRKKCyLzRbEGYfEpFIrc+xDVpth9w0XSFTIsLe72lgYKkyupbrVjeQ7mR+GSyVwvIrQyr5g1lUj3RcqxRqJAYdFhPhj782E+FedEEfL3pSs0lIk82B7njazjJud5Awpd0jW9VkgZqgMIaVJQPa2eH8d/J9NnnnnmMOuss9rIwIwzzmhpyeMa+ZOkURvmZsTvf/Lb8WfUCJ+4PMg88s6H3/F2/26kT7JMQjQaSbkspR32YwggsOGGG1pUrmaAcM24NeH6hmsW4adxe2OEfMCAAdbpZA5GtV2wygEljdDYzDtBkSVoABYs5nkQpSxL0JHnPmMNevzxx81iwXXgclbKtdS7D+HnZyABZQN8QfO0spGWrH/+vy8kjmsmchjPL8bS4y5wRAhEAUZm3W3QIyR+9dVXdk/BFSQgb86NspyWt1PP+yllqA7wwJMP3dPq+XH8dzKdSsNIeRxRK3lcI39E/fD7n/x2/Bk1wicuD9AZQebjF0xyv0b5JMskRCMQd8A6I5d+DBYIFKKsw4RxXLCwPBBpDcsEA43Mu8EVjghmTNSvBcnOcSFwhWKiPp1iRvRRTLGgYElxa0NWQI4I/YwbHMrEyiuv3L7gfiNdS6Hn49suvPBCc0X74IMPrPw+jyx5bNr/XrdQarHYsFYVbnA833feeceUF9zoXLFhThX18MYbbzQXOcAihPxecsklZgX6+OOPbfF2nw9E3qzBhPskAR48bwKDeL5Qz3eWlCFRMggqc4WyHlK7UOMiRJJ8Mi85EqI0eHd4faEjRWSupZde2ubFMCLvE63Zh0ivzEHBRYztBA7w7cx3oAOGyyodN59vwAgzcxTY/5FHHunQwao3cYeTSeus2ceHCep+LUxEZ0Qei1BX1qDpDF62Qu0Zo/yEl2YBV5QI5gPR8WUyvVsUsgKyhAKHjNEZxzKBJYjIfLiQNRr5FATSfRuLpuNGyeK2uLG5xSbfsY5v55vnTwAMrDxY/QgcwWK+WAIBhWe99dYzyxDyO88885gLoZcD5Z5gCgSa2GuvvWwAkUXbHc+bYz1v1mqK60chGaw2mV10NcvQaDMylIVb74LqlSUfxbY3Aj7q4RVP1A4a6ddeey0TMp81uKdYatPuLTJPRytro7ai6zTioqvIKFYPFkJknRzkkk4SChBzZphnQEheOqW4phJ5isnsKAqMdr/yyithu+22M6WCfb0tRwHCPYhJ2uzPpP5GWmiWMMU+Ss49oKxE46JzmbZIJ/s0wnuKchB97OyzzzaXPjqzrGmERYjn4eWsd3mLnd+3Y43ADQ45wp1rtdVWs5DltVj/CA+Dziy6mnZtnkbENqxbuPr5GkeF7kWhvDpL8nj/n2+nWHm6WoZ8oJA1/aKrWQYBjgUFqiEIlcDLlSxvkmLbGwFGD0V9eP3110eTkWo1gK1GoToqmReNBB2TRx991CZP03lD6WESfjxJHUsJLjdEVWOCNy43bhkCl/O47cDKRJhj37+RLEMO5WaeBSPorPHGhH0UobR62wjtIi5XdLSxBKAIEUkM1ycGc90Ni3I2Qjte7PzID5YsLB4vvviiyR1hpHkWjbwQLMTXlpT9eLpCWr1IkrYtmZYmj4VIHu//8+2fZJ7Jsvp3PZFlqA4wWgvqqNQOv+csPtoIFa/VYOVuRuLwP6YB1zOoHjTp3N/4nssy1Ho0omUI6zDKz2233WbWEXBrzz333GPWHoIG3HrrrWGuueYyS8R9991n65owms6Efd+X/13WsVyQ53//+18L8YyVKW19m1riZQMsQ7gQoQj6ZPNCxMfWEs7LfA7WCGItI+bS4EaG9aTR5tJAKfeJqHdYg3xADoWUKGmEjq4lnbEM5bs+T8fDiIGF2DIUU8r9KWWfJOUck9zX/+cbyj13OcgyJIRoWKrZ+AndX9GY0PlxBSZe1Z75KG75YXI1HfFTTz3VPn369GmflwDJb+AY5oCcdtpp7ft7R6ueFKuHhcqYdmwtrolFMbH84J7o8z9wUcSdDEWoEe5rTKH7xHwyJuxvueWW5o1DdDiCVbAOUq0Voc6ST4Y8nTWOcCtNU4SgFBkstk8a5RyT3Nf/57sz564WUobqCILon+T/+lT2IxqD+Fkkf+vTuY+T77cQjQAdHxZzZC4QnVSiX+HSRmQyd2vz788++8xGdOmIoyi5PPuI+vPPP2/rwZCnK1KE/mWEPHapaxTS6mM5HUGOr2bHkaAWxx9/vK0Dw/oxLJ2BhY5AF/GIeiN1XvNBGbE2ElDgoosuMusoax/h4kdQjla0kud7H9TieWblXSRlqE4ghPEnLU2fyn1EYxA/i+RvfTr3cfL9FqKROOKII2wOyiqrrGKj9AQS8LkPM800kwUVOPTQQy3qlLs3O2wnHDWd9HXXXddG/1n/y4/p0aNHbs/Goqv1sdzjy+mA3nvvve0LvfIccGNEQcXNFsUhS20JQSpYAwml7s033zTlm6BJrOFUqmtaNeFe1uN+1vMZZuXcmjNUBzRnqPZozlB98fkrTz31VOZesFnDm3RW+tacodalEecMdRZkOsttRrlzhipJvnuHVY41dghtjkWOdWCI9Ifljv2zdr9feOEFmxtE4AdAwSMUO/PQGoHORpMTnUdzhoQQDUkWX7JZQ/dYNBuS586TvHcoPriMsXiqK2dY6LCgsH5Qowe4SY7fsw7OySefbJHv3nvvPbMUsgjprrvuWldFKM3OoLa5tqTd67TnAlKG6oQqhBBCiFYl2SnJ10kpF/KpVF5Zo9h1E1ENN7jTTz/dIsWttNJKtiYTboZuPW70exf3nbB6o9Rdc8019j/BEi677LIw//zz190anq8j3qqyWQ/S7nW+vreUoTrRyhUi7drVQIh6IxkUovLkq1fJTkm5A4RxvvFv8ik3r2bBrzt5z1npn7k0zMMiuACR1Vhn5+ijjx4tElkW7h3uZscdd5xZf4YNGxbmnHNOC5ZA2PXYDbGR23TKpk91Pp1BylAL0hlh6ayAQfLYtMa2VV9eonGotQyWUqe6Uu+EaATy1auuynacL79VV/4mvjePPfZY2HjjjW3dIFzksKTgJsdCtR64ArJy/3Dt4xpuvPFGu04UoIsvvtjCTCetQflkrxGgbPpU59MZpAy1IIWEJV+DmHZMqY1nZ84nRCFiufHffFdKngrlE5+vM/hx1ItieXS2YRei0UjKeiVlm7xVVzryxRdfhIMPPjjstdde7daTSy+91KwpPoE/vmeNfv8IpU4kQiLDEfzhP//5jyl4uMaNN954ub3SiWWvWJtbLSSf9aHU+65ocnWgFtHkWKmbRoIFudxs7I86n3BwDGb0Rx55pODq3eRTSMBuv/12m8D4ySefhJ133tni/ael1RJFk6svHk2uEpHN8skf8rv11ltb5Bhf3LHYs+YYfOhZtd5lvjPygXyzdgprnaTJPJN7t9hii9zetaGS91xkj2aKJpdGvvpdSr2vNbWMJsf1Dxw40BYYZS0nzkdUNaKrjT322Lm9ssWDDz5oke9Yf2r88ce369lggw2KKkGNhEeTE7VH0eSaEBq6UqEjFL8U+F3KSyJpOvdz+nehPGisGL2h8zd48GBrsIYPH25pdBIJ48kCaMnriP9Pnk8IB5lA/vLJBjLv8luKrAPHQFr9KEUGkXl873faaSeTeeSbtKOOOqq9Hmy44Ya5vTuSzF8yL0Rp5Kvfpdb7LFBue/D++++HHXbYwUJMowgttdRSFlygX79+mVSEWI8K6xYhv2lTCf/NGkj/93//V1NFSO1y8yPLUB2olWWIkWisPMVGohABXiDlHJMPJmdiXULpGXfccdvTGCmv5wilLEP1pRZWitjKU2pI1aRlqDOygXyTB/Umlnkss6Tx0vY6VktkGWptmt0ylCW6Yhkq1Hb4NhafxWWMD+eZaqqpwm677WbR4rJa9++55x4L8vDll1/aPUPJW2edddrb2CwwYsSI8NJLL9lzv/XWW60+4rVwzjnnmNui2uXqwjpDuFfed999sgy1Atddd11YeeWVw2KLLWamZEjquJjM2Qff4SRxQ8txzz//vK3uTX74F7NoFVCpF1xwQYvr79CZRNGgMQaUHvLgRewKiLvEkR9pbGf/E088MSy33HLhwAMPtDCfwDnYh4Zj+eWXb78eIWKuvfZak2fkLJYR7xyAy7wvwgfJegEoDMg84WWRUToRjKoC8o1S4fIJyCgLmrLaOTCA8Mcff7TLPPmhCJG2xBJLtKch85QVmadzhNzzsgTOg8yvuOKKtg/7CyFEoUEUtj333HNh0003tXWC6Gyvvfba1j6ussoqDdnZTmuD47TPP//c5gUdcsghpggtssgiZt3Cza9RFSEvP25wDD4QuY9ngjLK++SGG26w9h+vBbxkpAjVjjR5S0PKUMZIPtiPPvoo9O/f39x0Bg0aFFZddVVLj13dWEfg5ptvttGIGWaYIZeaHzplzH/gm0mY5M95aXjzNcxeLmL8A65BbvnyNBoJ0sgDM/5rr71mihwdTxZNAz/Hk08+GW677baw/fbbW7oQLmPIPCOGRx55pPkCu8wDssN+AwYMCDfddFM4++yzw0wzzZTbmt6xIM3n/OBr/9VXX5lCQuQlJ653LqPOJZdcYi82rKHIN3WP6EZxGr+PPfbY8Oqrr9qLnfMxYnXqqae2Kz5PPfWU1VNkPq6/QgiRhPaD9ygWk7ffftsWGz3vvPNsAdVJJ500t1d9idtNJ18bDHfccYe5wDFHCEs9A0YoFqX0W6pN2rVghaOvQt8Kj5hevXqZuzQWOtp6BsSS9OjRw94H5KdPdT6dQW/cjJFsSPADJg1/WkzJ88wzj6W7QOD+c+6551qD8q9//cvS0ogFiMZ1sskmC1NMMUV7QAVIa8TyUWhflJ8777wzHHDAAbbGAY0filwM1iQaw3quIC0aC5cpZB5lAUU9lnnnoYcespfTaaedZiuqlwLhWZF53EsY0UvKfFKe0yw3pcj8vvvuG6addlrrrDDSyUvfwa8fFwrJvBCiEHfddZe1Hwz40BZuu+224aqrrjLPjUayOMRtYqFOKoFn9thjD7OaMBiF5ZzrwS1urLHGsn3Iq7Md3UoQXwtzsxi0WmaZZUz5YfALjwG8BXy/tPcB5fdrYLs+1fl0BilDGQdlgonadP6YuI27TwwrTeMqlOwwJokFiA4hkMZv3OLo/MWVGPz/tAYqTkvuh+JGfjTmuBDhiseicL///rvtQ/7TTz+97StEEmT+8MMPN6sPATryyfx8882XSymOyzzwm5daLPNJ0hrcpMz7/3wj84Dij8zzwX0CtwrkHiTzQogkcbuCVXz33XcPhx12mAUmoh1BaUAZYm5iWrvUKORrM7GG0y4yAMVgENeG5b979+65vf6mUa5vxhlntLJ4eVBI4/8hfm4EfmgkJbVVSJOX+LnESBlqAnATwqWMeQyMPMeccMIJNop0/fXX51IKg6DE8yOYb0Hnk8ru/rooR+yHoLGvNwQx8f/+m/2AEXjAJI4LkX/cygXJ/ISIcZlnPg8y75Ya5IaVyYvJvDeI/p2U+SmnnNLk1See+/wg8H2TshrLLL/jF+Tkk09u58L11OWdYB58e72KjxdCCKBdwN3qyiuvtMVTmYyP9figgw4yr4/ZZpvN9km2aY0OSw4wEEp7jcsfcylxIV5zzTXbFYfktTTKtdG2894hzDekeQo40003nU1jwIvB3weiNqTJS777L2Uo42BefuGFF+wBMzfCAxk4c8wxhylEzIFA+SgFJp7T4aNTyHwIGifPnwpNPvzPZE0aaBqCZGOQ1jh4GsoVI1qUidGtN9980yJeOQiwGgyRD2T+xRdfNBnBTx6ZR2b4IGMu84wu4pqWRixfHIdlFeskMs8cN2SeFx75I/OeDzLP6u10TlyevcGNZd7L4mlYm5B55ghRfuYjvfXWWx3kXgghkjC3loAsZ555pg1EMhDEXFsCJcTWBm/TGv3dSZvInE4UO+YWTzLJJKYs0GbTN4hJXksjXdsss8xi18CAmZfL3wX+jas/18XgGpDu20T1KUdepAxlHDpVuMkRyYpRFRoVcCGgQ8c2IrMw4ZxFWJMVNobjcC/q27evzZ0gGhYLnAEj2OTPiDudRdZQYTvn4APkSR7+v5NMYzSINCJ44fIUdyRBDYbIB7KCLCPXKCbIJJ0Cl0M+bGPkFB905uXE8hT/9v3nnXfe0KdPH5N5IsqxeCvyicxTv/DNR+bxD2c7x7DdScq3/x+nMdmZcuLOSr1B7uMgDUKI1iPfuw7Fh3mPzNsdOnSoWRj4nzYtduttJIq9tz/88EPrNzAQyoArEe/otzRq5LtC4Pr8xhtvdAiS4O8EvvnwrBicq/a1ZaW/VOtylnM+rTNUBxghBlxkOgOPzCtdPvLtU+zYQttLOW8hksd3Nb9y8HuudYbqQ7XXvOmsLBWTd0jbnnZcMq1Y3vm2VQqtM9TaMCCgdYYag3LXGWI/IqyyFAZ1d5NNNrFByVKObTRo6/ig9BCxEws8FiDCZxOAIGttEwNYROjlWpjziascbtRcYwxzQpnT6m7Qyy67rO1PgB/mRonqwzpDLA1D1FmtM9SElNKJyrcP6SgGfIg8478Zrfbt+ehq5y15fFfzE8IpJksoBrG8u8wnX2Ax5Jkv37T0ZFry//hc+fKNKVQ2IUS2KFSffRtr7BBlda+99jJFaK655jK33Z133rnhFaF81/fee++ZpZ2Itli7sLAT9IF1BBtBEUord740XBa5Fix0WLZYFw6XPzxp4gGHNdZYw7xeXBGqN/meTWepdH6FqNW5pAy1ID55m8XafDI3FTqNWgq9EKVQjkz6vs8880wHeXeZj93Yqk0pClBMufsLIRqXQvWZdurGG2+0CKuslk8nmlDTzNmde+65M2E94fq8veWbKJmUn0WpmeOJNYg5k7gvexClRiDtuSTTsGahzG211VYWQhs3RRaNZ+043Bdxn0YZ4rpxuUaZ9eAKfk/qST7ZYy0kAlcwd7sckvnFzz0fbON8WMhYTDem0PHxuQrl31WkDLUo+SpHklL3E6JWlCOTkl8hGodqdmayyrvvvmvrnDHRnqhqzCe89tprLdy0d7Chke+dl83bW4IioQSdf/75Zg1aa621LNjSUkst1b5uUEwjXpuXiZDfzCXFmsX8oA033NBc/mLLFi5YLBDLWo7HH398Bze4+B3E73LfSR9//LEFavj6669zKaNT7P4V2u7ztct5Bsl9/ZrSrs339W2cz9P45hMfH2+LvyEt/0ohZUgIIYQQVaeanZksEHfsmM9FaGzmA2G1ZpFzgqwQBdPXHPOOon83Kl42InuiABH9DpcyrEFYVHD9Y6FpiO+BU69rSyuLw6LelJu5TUQZnX322W2e0J577hm6deuW2+tvVlppJYv4l4yIF8P5Cp0zDRRkwpAXukcuI/kodKx7R5TzDLqyL/97WvwbuIZ4W/xdbaQMCSGEEEJUGe/Y4aaOteGiiy4ydzLml2Bt6NWrVweXuFp3CLvCK6+8EjbbbLNw8cUXm1LEnEyuieibadfUCKSVhQ450UNxWbznnnvMZZFgCDyr//73v3ldFlEqUIQqfX244BF4gflJzHtFOQIsLNzfdddd14KlrL766qZUE5QCV0ssiwTuIHofylQ+ZYl0ohViyWN/QrYTdMcjnfIsUfKQTbbvs88+pig6nBP3QS/DAw880B5hb8SIEeHQQw+1MvXu3duCR5CvlyXOG4tonLe78BGsYrXVVjOXRIKQVAspQ0IIIYSoKnSW6RgT3alV+eabbyxUPx3cd955J8w666xmbaAT6JaTrEEkNaw/2267rbnHYdXC4oVFhcVhswTPhOvA1Q05XXrppW35BhSL8cYbL7dXbTn77LPtPqLgMNeVdZngvPPOCzfccIPJDstHcM+nnXZaU8buvvtuc7tEqUPh4PnEC4cnGThwoC31wHp6hAInQIQrHlgqmSeFxe/22283JYwy+Xa+sZYNGjTIlCHW7PNz+VqSuBgSCARrIeVxyPvll1+2vH0dzDhvzsXAwRVXXGEL9Po8rGogZUgIIYQQFYP1ZLAMEHGrFuQb9S4G5WQOSK3KiTXolltuMevCDjvsYB1tRvvzWRsaGe45C75zTcwHwhqA0kDHtUePHpm6JjrvKBNYtrB0TD755OaySHjzGWec0aw+bvHprKx1BT+3f2MpQhEiyAb3GusVi+KjDFFWrmOaaaaxQA88E64pXg8pCQogSizuf1iGsCRhsUR5v/fee826NMMMM5jCjhWTcP2u1GDRmW222cJHH31kygrrL7GNOU6PP/64uUwSZIJ7iqy4QkPehLzefvvt2/OmzXjyySfb8+Z6qZ/Myaq2Yi1lSAghhBAVA1ceOkedoTOdTe8klgtKEApRLTq4XkY6r4yUE6K5Udd/KnY/CIrAqD4KHaGzZ5llFnOPY/Q+K9Ygv8annnrKOulEvkMpYvFt3M/yLQTbWVnrCpQ1Pi8KB+5mBGxIi4iKEuRlJ3IfykU+ZYi8UVQ8nwknnNC+2Z9Q71hnkNWFF17YFHesml999ZUpSxzLc19nnXXMovPWW29ZufgQMY7v7t27tyuTsWyQN+dAESNv6gXyhJtcbD1yBa/aSBkSQgghRMnQWcEFhknjzCPYb7/9bKTXYbSXAAG4GbGmF7+984nLDZ1PXOYYZca64NvIl0428yM8X3erw52GY26++WY7L65MHMtcBRYp7devn+VH/nTggPwY3Y/zi6NysZApZSPcL+Us5ErUFegIco0XXnihuQThHtcI+H1Pkq/Dz/4sU4C1gYh3/M9cE1ygCCmdJWsQ8nrEEUfYfCAi+s0888zmekbo72ILdNYalx/Hy8daVC7r4PugrKKIAIMS7D/22GPb/0nI2z+O5+PnYd4O84iwMOGqh+saAT9QyrAKUhepZ6y35O6ErItFnihOXkYUJP+NJQh5QfEkb/L0ZS+mnHJK2wdqoQiBlCEhhBBCpOIdo/j7uOOOswnOuEQxj4DOFxOhvQOGyxGuO4QlpnPDb+9sMY+BNVqYnI57DHn5SDCdKvKlc+35nn766TaC7Mczkn/99dfbQqTe+WbOQ//+/c2liTzYn3Iyb8LzY04Cys5ZZ51lo9rAfB06b8y5oDNWrXkhfu8Y5W4k4g5wMXDN4rlx34muxtwSrCkovo28IGya/DI3hgAJt912m3W2CW3u7n216nyXCnOEKDODAT7ggCKCexp1jnTqz9tvv23ubdRBFG725TlxXQQwSAtpHuP3x0E2UEoYJEBJRKmi3jCvCoWY83i9RClCPqjbPt8HixAWQ2QEJYjjUXyog5wL69X8889vdRClzvOOgzewX7Jc1ULKUJ2o1QMWQlQP1WPR7HiH2b+x1DCPgPkKdO7prBEeGoXCOzGFOpS42XAc8xNYP4WOEPWIzhsTv3fffXfrSDFyTL4PP/yw5et1jWM4Jy43fh7ca4jkxZwDOoCMPlNO8mPkn/w4hg4wCprnxfH85tr8+qpBWt6N2nZ4ueLyPfbYY2bNY6FqrgXlgehq8YKwjXo9fu/5xiVyl112sWABWCzcZZFoaMxlcVkoRK2vE9nF4kJUtnge3iGHHGKKCpYslB3WOXIr6n/+8x+bN8Qzm2uuuez60hT9+FqT1+33gnxRdjfffHNbJ4r/WYSW7Qxm4CLH/Coss8iDW6A49rDDDjPlh3WmCPTA2kwMjFDv2H7wwQebWx7zisiba2EAxK1HtVRMxxh5QY0pwU0MAizqA6N/yUovqk/Pnj3bGzhvZLMEZfaOU6OTvL+MtGXJfUVUBtzHcAFjsnMl56YQEQrXKLe+OMgcoXNRUhitxmKA9cfnCRBNDre0u+66qz1ymqehXDFyTKfI5yK4HHu+zE2hE47FiHkQQEhgjmekH2WH/5mDQOQtOr5xfuTj5UXBolxYjZgPwfnj+QyVBhc9Rsxx52tkK0oS5n4RWYz7y33EFY5OOG5+teyodhUsJyg9l19+uXXkcf/CwkX0s2IWk0qBKybWE2Q5XpS1FFxu43Y9HygcWGAIoFBPipXZ62QxSt0vjRVWWMEURAI1FHN9lGWoDmRdGeqsYNYbKaH1Y4EFFsj96ig/WZAlb4y70ihXm3z3VDIvKg2KCDJ24403tvv482GgKVYovDOUJF8dcgUHVxvyi+cnkC/HFaqDpPs29kuWE9ceL2uynPnK2gr4tSe/sfRhhbv11ltttJ/gCLg05Zu036gwrwwrCa5eKEKrrrpquO666yxQQiFFKCkT9ZSRWLZLoRGeT7LMyfvHtlLuaaE8KsrIzIUomf79+7edcMIJuf+yw19//ZX71ZF86aKypN3nRrz3lClZLpf5P//8M5cyikYrf1busagNiy22WNuCCy7Y9uuvv+ZSKscOO+zQttdee7V9/PHHbX/88UfbG2+80fbUU0/Zb3j//fft/I8//njbd999Z2kvv/xy26KLLtr2zTff2P/gaSNGjLD/d9xxx7z5+r5ff/217QuvvPKKncfz9P+///57+3+nnXZq23vvvds++uij1HK+9957tv+jjz7aoVyVZokllrBnMbIznktpXL766qu2gw46qK1nz55W5q222qrt7bffHq39a3SQu+OOO669Hqy55pomj/7sa80yyyxj5XBZL5VS2vB4n+WWW67ts88+y/3X2iy//PJ2z+M2Ix+yDImSGVnhzNzoPtxZIt+oSr50UVnS7nMj3nvK5OUa2T7ahxHS5LwFaLTyZ+Uei+xz9NFHm7WAOT1M5GYOxshOZm5rsDVPRnY+w7777mtzCnDXKwZ1iwVJyReLRFq+5XLkkUeai2C+chJBjPkY+++/v0WiK6WczUbcpuHWyLwqXBmZ2zFSMTWLCuvIZMkahJsk10GgDa4PyxBrOuE6mjWX4VLa8HifBx54wObPifLQnKE6w+3PSocFP3Am0QG+t0zSE6KZYU4D8w5QhIiKQ/QbIbJAJecM+Xsq+Z2Pzr7XsvQ+LIdGnzPEmi9E4yO4BMoiczyZKE90PqeRn42X7dNPP7WIdyz2SZvNHKcDDjjAXPtiJage19KVOUOic2jOUIbIUsM/aNCg3K+Ov4VoVmhE3QqKhUiIVsTfU8lvoGOZpLPvtc4el1YGURrMCWLdINo3FDWUBxbQjBUh6OyzqST+nJPPG68V1j3yaIFEKGNNKUJMEwK83oqQaHykDImSwfzqjQhmaL2ARDODfDOK5yD/WXMPFaIaxG1/OR3Lrr4z8h0fl6Hcc3S1TI1OvuvDikIYc8Iisw4MboREXFt33XUb1iXOn3P8vF9//XULHc1ivYSdxhqAYkQYalz9kpQjr6J1kDIkSuKNN94IH3/8cXvDSkP65ptv2m8hmhHkm3C/DvIvmRciv/KR1vGO0/w40pL7+v9peTildGTL7ezGZWpGktfHNxH7mEflbnvMpUKZYE0byHcPG+keofgQ9hs3Zlz4mSeDqx+L+NY7rLTIHlKGREngLuR4Q8lIuRDNQvJFjytoMi22FAnRChTrAMcd57ROdL40PnHevl/a/qXSlc56V86bBbg+Frhl0dHjjz8+jBgxIiy33HJmRSHYRdKVLP52GuUe4QqHax+WLKz1G264oV0H15MvQEJXZEM0P1KGREnEio83KnFnUQ2NyDrJF33aHKF4DpEQrUC+DnBam1/ue6DSnetK5NeM7zLm1LC2zqabbmoBNViglsh9J5xwQqoVxe+jfzfKPRk+fLjNadp7771NsWM+0IUXXhj23HPPokEJuBb1U0Q+pAyJorz77rvhgw8+yP33N++//357eqVfakLUE2Qe+U7KNfKeVheEaDXS2vxavQeq2alttnfZhx9+GHbYYYf2OTW9evUK11xzjS0+WkqYae4196SeigTKHK59hFy/9957bS7QbrvtFi6++OIw33zzlWwNarZnKyqHlCGRijcifGMV8v/jxoS02H1OiGYBmecFnHyZkib3UCHqizq1xcGCfeWVV5o72TPPPBOmmGIKswRhEZpyyilzexXH73W173myrXXeeeedsO2225prH2GSl1pqKVPmsHKNN954ub3SkZyIUtE6Q6IohKskgAIRZlxcaGT4jZmahkmIZoLJxUQpcjmHWObpZJQyqipEvajkOkOia1RrnSHao7QOP5ZtFsZlnTQGcNZYYw2bKzTZZJPl9qgt+coZE7ez8Msvv4RLL73UFkv96aefLEAC1qCVVlopk22vrzMkao/WGRJdhmhaRNBK6xSCR5kTolmQzAshsoArDg4LpuI6ttlmm4UXX3zRFIhTTz01HHzwwXVThCBZzpi4jfX9nn76aRuQYqFrlKK11lrLBl1XWWWVzA5CFboHonqUet9lGRIFufzyy8MZZ5xhvxGqpLiQtuuuu4Z+/frlUoTINrHM54MRSsm8aGRkGWocqmUZimEAB2sQFm3o06dP2GmnncKkk05q/wPv73p0youd17d//fXX4ayzzgp33HGHKXazzjpr2H///cN///vfzFvi3TJERNJiwR5EZWDNKVwrZRkSXQYh8kYsn97MPvm2CZE1PIqcyzTyn6wDyDzuJ0IIUU9+++23cP7555s1aOjQoWG66aaz9Xf222+/DooQFFJIqkmh87oidNttt5lL/i233GKKD/OErrjiirDQQgt1UISy2NfwaxS1h/teisxIGRJ5YWHVV199Na8gkc6HBph9hcg6n3zyiclz/PJC6XHFxxtW9mFfIYSoF8wJ2nzzzcNFF10Ufv/9d4u2xnxGrIJjjTVWbq/GBpdjLFhYtb788suw8MIL2zyhbbbZJow//vi5vf4mi0pFqR1yUXnid3kh5CYnymLBBRc0wRoyZEgmGyUhyqVnz56mDOHHnnVXDdE6yE2uceiKm5x30eL3Lc+V9XVQfHAnm3nmmW39nQUWWCAzbRTKG4umXnbZZeHHH380KxYu96uttlpmFLlykJtc7ZGbnKgacYMsPVo0K4VkW3IvhKgVvHPj9y6BEQgrjRJBW8Rv5jn26NGjXRFq9DbqhRdesHKfe+65pgitvvrqtijsmmuu2ZSKkJN8lqK6lHOvpQyJTqNKLZqVQrItuRdC1BrCS7Nw6vbbb29r7xBcAPc4QmZPNNFEub1GUY82qhQFbMSIEbZeENfw1ltvhWmnnTaceeaZ4dBDD7V1kJod7pEG02pHOfdaypAQQiTwRjRuTNPShBCiK5TSnrBoKoun4laGy+5WW21lwQXmm2++hnCL4xqKKWD33XefBUi4/vrrbV/mOjE3aLHFFpP7sag7UoZEXsrp9KmDKJoJf7HHL/i0NCFE12nl90eyPeFe+P1gjgmWlJ133jl8+OGHYc4557SFSLfbbrsw3njj2T6NQFqb6NdAoJk99tgjHHTQQeGzzz4L8847r7n47bjjjqNZtISoF1KGRF7SGjjS8qUL0YzEnRMhROXR++Nv/B07ePBgm1dzww032P8oQChCc889dxhzzL+7bvVum/Kdn3QWSiXC3SOPPBImnHBCC/dN4Ic55pgjM/ObRGsgZUi0k2yU0hop0uJ0NWSi2fHOiRCivrTC+4boV0ceeaRZU4YNGxbmmWcec4nbeuutw7jjjmv7xO1Rvdum+PzeP2BJDtzgTj/9dAuQsOKKK1qAhPXXXz+MPfbYub1HwfHqR4h6I2VItJNs1EppZOvdEAtRaUp5MevlLUT1yFe/mv19w4LPzA0aOHCghUMn1PTFF18cZp999kwoDQR5QAFCcWMttqmmmiqceOKJ4dhjjw1TTz11bq/RUT9C1BspQyIVGicaNkZ4aNT824nT+GZfIbIOcvzaa6+1yza/HX67vPNbMi9EdWi1zvHXX38dDjnkEHMjYwHz//73vzavpl+/fh1CTSfvSyMpR7jCbbLJJhbkgbWPNtxwQwuQsNxyy+UNkODl1+CSqDdadFXkhTCYmLeJXpNPTGic+bCo1SSTTJJLFSKbIPMrrbSSvcwLgc/+vffeW3QhNyHqRRYWXR0+fLiFhmadnPHHHz+Xms4rr7wSttlmm3DnnXdmrt4VWnSVduTkk08OX375pW3bYYcdzJ0sK+vtEBQBa9CgQYPCn3/+aUEe9t9/f5vblFSC6Ee0mqLraNHV2qNFV0VF6Natm62+74pQWiPGtkUWWcT2FSLrIMcLL7xw7r/8sI9kXoiugevUgAEDiipCzcgXX3wR9t1333DwwQebIsS7FqsKAQeyoAjx7ie4A9age+65x6Lb7bbbbhbkgYhxadagVlWEROMjZUgUBM3aSY7quJLEPmrkRLOAW0cxll9+ea2NIUQNKTQoB769EUmW+fbbbzclAmsK1qADDjggnH322WGmmWbK7dF4xPeXRV+x0jEfiJH3pZde2lziiH7XqFZIIQohZUgUBNNuWhhPvmng2cY+QjQLyHOhkVlkfplllsn9J4ToLC+//LItuvnNN9+0/3744YfNTWzRRRcNO+20U/j888/b3zfw4osv2lwa9mW/5557ztxaG3lAzt+buAUSJY5ocV999VVYYoklTIlYd911G2JwJVZ4kr+5v7/88ks477zzwmabbRaef/75MPnkk1twBNz8ZphhhoZ+BkIUQsqQSMUbwskmmywssMAC9hu8sfPvBRdcUPMmRFPhMp/vxS6ZF6IyxHXMf992221mJeGbsMzMR4nn8N10003hhBNOMNesGWec0X4zr7WR8WtDiSPQAIuNHn744eGUU04J3bt3t22x8lEv0p4H8PvJJ5+0SHcXXXSRKUVrr722rSO08sormyLXCOUXorNIGRKpxA0hLkHe0CUbvFJcioTIArFsYx2KO1hxfcAqJBc5IbqO1znql9c33K+mnHJK+6A8sPioB/Fhvx133DFMO+20Nmdvgw02sLV4mLjfyPh1Mq+GdyZKRO/evQtGimsUiHSH4rb77ruH9957L8wyyyzh/PPPtyAJDAp5uRu1/EKUgpQhUZR4fgQNnr+UgPlCcSdSiKwSv8yR+XhxwFjGJfNCVAavc/5O4ROvRzPFFFNYRDxXlNiPtWscj8yGMpSFOklwgZNOOilMM800dq2NXGbKhnVuo402sjlOlHf77be3BWAXWmghDQiJpkLKkCgKLx/CZNI48vFGfL755rPRO/4XoplA5ln53XEZR+bpoDV6R0aIrPLDDz/YN/Xrww8/NLdV5ukVe89k4T3EtTj+Lm1EsLbtvPPO4aijjrJIdz169AjXXnutLabaipH/RPMjZUiUBOsNJRvuONKcEM1GHBjEFZ+klVQI0XW8LlHPzj333PDdd9+ZIsTCo7169TJ3smarb414Pb/99ptZr5gbxBwh1g489NBDbQ7XzDPPrDZPNC1ShkQqyVFvOoFJNF9INDPIvEdS9PqgyIlCVJ74fYP1lblAhGn+73//a3OI4gn6yXdT8n/ROV544QWbo3XOOedY4ArmNGEN6tOnj1ziRNMjZUikkhwBIuLNHHPMYb/Zxm+PgiNEMzL99NO3yzxKkWReiMryn//8JzzxxBMdJuJjCbr77rst6hoLkhJ0AHzf2NUMV1bSiM7mSDlKJ999+f7778Pxxx8ftttuu/D2229bu3fmmWeaRQiXYCFaASlDomR8cVUaVdzmmgG9OEUh3BLkMu+WokZCMiyyjstwJWRZrlzppN2X++67L2y44Ybh+uuvt7aN9YOuuuoqW+NJ1iDRSkgZEiUTK0BpbnNZRC9OUQhk3jsFcpETovKgAHk7TIe8HIWIfSuhQLUaH3/8sS3+etBBB4XPPvsszDvvvDZXiLDlE044od6LouWQMlRjstxwzzTTTGHWWWcNs802m/0Wotlh0nCjy7w6LiLLIL+8F3GDY02hchY05ljJf+kQghzLzyabbBIeffRRU3z2228/W0h1zjnnlDVItCxShmpM3HBnUTHCVc7d5YToKlmoA1iEkPmsdBQ0Ui6yRtp7MZbjUmRacl+Y1157LWyxxRbhjDPOsPDlWL0JkLD++utbtL60+y5EqyBlqI5kUaFwZUiISpCFOkCnIXYRbXS4p+rQiKySJr+ltBNZfJ/WAiLDnX766aYIDR061BZ8PfHEE8Mxxxxjvx2/f7qPohUZY2Sjo7dmjSFk6Kuvvpr7L/sgQlloQFk1+7zzzmvISfDNTlLmG1lmvEmMy8dvT290eY/Lh8yzbovcX1qPxRdfPPz6668WbW2cccbJpYp6sOSSS4aff/7ZXNMmmGCCXGr1ISLfKaecYouo0gYQspxQ5d26dcvtIWoFHgZE7nvooYfCxBNPnEsV1YSB+2+//Tbcf//9Rd1v1SusA82gCHlnq9E7hjHPPvtsZsrabLz++uu5X6PgObhy0WhQtqScxGWNy94o1xCXN/6NzAshsk257czw4cPDAQccEPbee29ThJgPxLyg3XffXYqQECnIMlQHGK0FdVRqh9/zIUOGjNbRFdWnZ8+e4a+//gpPP/20rBQ1Qve8tZFlqHGolWWI+n7jjTeaBwQj4uOPP37YdtttLXz22GOPrXdfHZFlqPbIMiSEEEII0SK88847pvj079/fOoBLLbVUuO6660K/fv1MGZYiJER+pAwJIYQQQmSQX375xSxB//d//xeef/75MNlkk4Vjjz02nHTSSWH66afv4GInRyAh0pEyJIQQQgiRMZ566ilTgi688MLwxx9/hHXWWcesQb169bJw2YBFyJUgWYeESEfKkBBCCCFERvjqq6/CkUceGXbdddfw3nvv2aLQWIdYQHXSSSfN7fU3UoKEKIyUISGEEEKIBgcLz2233RY22WSTMHDgQAuMsv3224crr7zSggQpUIoQnUPKkBBCCCFEA/PBBx+EnXfeORx99NHhiy++sGiRV199ddh6663DuOOOm9tLCNEZpAwJIYQQQlSJNDe1UoMZ/Pbbb+GSSy6xuUFPPvmkrRN06KGHhrPPPjvMMssscoETogJIGWoyOhMtphoRZqqRpxDNguqHEK1DWn0vRYl54YUXLDQ2ig9R43r37h2uvfba0KdPH7nECVFBpAxlkHwdKdI7M0pUjZGlZJ6UTR1A0SjUUxa9nqaVQXVECDFixIhw/PHH23ygt956K8w000zhjDPOMIvQFFNMkdtLCFEppAxlkHzKS5z+8ssvhx49eoSffvopl/J3Rytfh4tjmITJStnldsrivG+//faw5ppr2vkvv/xyS7/jjjtsNAs/Z08rRLnnF+Kll14KCy+8cPjhhx9yKfnxuoLMI5OlHFMIl/lYvuO0Sy+91NLAFaGkQuRpQojmolC9pt7H7cB9990XNtpoo3D99dfbcVtuuaUFSFhsscVkDRKiSkgZahHijlaxDtdff/1VdqfM9//888/DEUccEXbZZZfwxBNPhA022CB89tlnlkYY0MGDB1taMco9v2hN4k5EUmZ8W7xPNRg+fLhNat5pp53aZZ60o446yiY8I/Mbbrhhh/JQVv924t/VLrMQWaEZ6kKyrseQzuejjz4Ke+yxRzjooIOs/Zh//vnDZZddFnbYYYcw4YQT5vYWQlQDKUMtQr6GOI0xxxyzwwvIf/Od78Xk6ShDKFNLLbVUGHvsscN4440XvvzyS0tbeumlbSE40oqR7zxCxKTJNWnIj28rVfZjmUNenWKyGMu8y3eyHow//vijladQuUotsxDNTrPUhXztyJ9//mmWn4033jg88sgjpvjss88+4fzzzw9zzDGHvY+FENVFtawJYELlSiutZGb0k08+OZfakTPPPDOsvPLK4cMPP8yljI431s8991xYf/31LT+sOfgvwyuvvDKa652n/f777/b/FltsYS+vJZZYwtLjtMUXX9zSOA8Rck488cSw3HLLhQMPPLDdTcnzYy2F5ZdfPpx00klFO6Oi9WCVdeQ5KfPIGfLC91lnnWX7vP/++7mt6bDv888/30Hmv/vuO9uGG13S9Y60RRZZxCY0A24sdGhQfHAzRQnaaqutrByexnZkHnlG5klH7r1ukScyv8IKK9g+sTImhGhOXnvtNXs/8n7mvcp7nPc51mUGVkDvPyGqj5ShDEMjiWmdzuAxxxwTBg0aFFZdddXc1r8ZMGBAuOWWW8I555wTZpxxxlzq6NAphFtvvdVGpVjUDasOSku+Bpl0Om6+nbkR/H788cfDkCFDLO3iiy+2NNyFnn32WTsP5X399dfD//73v/DNN9+0d2g9H0KI0jnERcDLJQS4zLMCOzK/yiqr5Lb8LT/I/E033WQK0cwzz2xp+eAY5ve4zH/99demkKDA+PYY/vcPEPYWX/7HHnvMZJ6R3IsuusjkljRknu3HHXdcePXVV8M111xjso3Cdeqpp7afB5nn/Eya1miwEKNggIzBtW+//TaXkn1+/PFHq/ubb755GDp0aJhmmmlC//797b3Ib/D3nt5/QlQfvXEzDI0kLjjAvJwJJpggzD333Pa/88ADD5gSRCSaf/3rX7nUwqCATDbZZGGqqaYKm222mZnuIV+jXKyxTm5H+SGgwv7772/nYP0EOrUxnBd3AflKiyTIPDKFKxoyP8888+S2jOKhhx4K5557bjj99NPD7LPPnkvND3ltt9127TKPPLrMQ1J+i8k7pMn8nXfeGfbdd98w7bTThkknndTcYh588MH2fZH5iSaayD5CtCJ4Lqy33nrh+++/z6WMIs1SmhykaHS8ntO2bLLJJuGqq66ya+A3AyRYjBUgQYj6IGUo40w99dQ2URuFBzcf3H1i6BDiKpTsMBaCDqHDb8z3sfUnJl/HMC3d01DcyIuIObjE4ZbESJm72sH000+f+yVER5B5AnIUknncTeadd95cSmGQxVjmyR8XuM64quWrD8g8+dHxwW3O5Z5On8t99+7d7VuIVgW3USy/SQq9T7IC7QyusXvvvXcYNmxYmHPOOcOFF14YdtttNxsASXu/CiFqg5ShJgDXONxumMfAyHMMaxXcddddFqazVOL5Ecy3oHOI284444xjLyCfKwE+56EUvLH/5z//ad9Yh5555hlzI+LDiD/78Mnai07UFmQed06X+VhxOfbYY7sk8x988EGYcsop22UeYplHcU9STF6xOiHXuOPhSucf5N7PIZkXrc4222xjgwPLLrusDRowz84hdP6mm24aFl10UbMeMQjiLqZZAbfZcccd16LGESmOiHGyBglRf6QMZYi0kaNPPvnEVqmmIzXDDDPYyyPuGM4111zhhBNOsDkWuOmUAqtd0zlEEaLBZq0U8mfuBVGx6NDBr7/+Gq6++mr7nezIFerY4RO9wAILWJlwdWJRuaefftq2cZzmS4h8UAc+/fRT6wjRicCCmE/mTznlFFO4SwErEzKPIuQyT/7IPK54XneQedxb6IQVk3n+9zQGFOjcIfNYif744w+TewYDkscJ0Ur4e43vCy64wAbFcHX1gQKvHzfeeKPNX7333nttEVLqeNaUIQZumM+Ihdhd3B21A0LUD/U6M0RaY0knkInkTDAlGAHrnSSVCaK4HXzwwbYfL5n45RN/A7//85//hLXWWiv069fPomsxWgeMaDHB84YbbrDO4o477mjbIc4D+D+Z5pDOS43rWXfddcNhhx3WYd98xwmBzNABQs6RPToW/PbIS04s88zLSZKUT1zq+vbt2y7zW2+9taUj87ihEozBZZ6RacqRlNmk3PK/K2n8JoAC5WRUe8kllwyHH354B9dQIVoRf6/x7e8uTwOvW6zZxXy7bt26WbQ1Bi7iQZAs0Lt3b7uG+PqEEPVnjJGNjHqeNYYRYmDkq6vw+JINa1paq+P3HNck3Zva07NnT+u4YAGshltIpWW+GepVte+5aGwYEMCSyULA7orZyFC/iKzG4BvWn4knntjSPQ3rLIFHgAhzpN1///2ZCLLD4MfPP/8cHn30UbM050Pv7uYF10/miDIg7bItqgtLVRCFknbCp2fkQ5ahjJPWcBZrTFEMkh8mopcKDXaStLR8lLOvEKVQTOZRDJBzAhfEMl9sZDmW1c50UiTrIh+SjY7kq19+n+Lt/jtrlqFidKaNEUJ0HSlDTYS/NPK9ZD0di5RP3vYP7kYxhV7UyQabfctpxNXgi1rhcuyBOmK5R+bzzU9zGe2qrErWRT4kG6OI3zU+Ys48WF/42LfH+/lv3UMhRCWQMtREFOvAxelp+8Qvm3JeMuXsK0QtqYRsxvVCiK6SJk+tLGNxHSUwQp8+fWwNOuaTEhwlrQ6npameCiE6i5Qh0Y6UGiFGR/VCVJJSO/etCorQ448/Hu677z6b60RAn8GDB7fPF0LpYd085kJpgWIhRCWQMiSEEELUmNiSwW9ZNkojn+IohVII0VmkDAkhhBA1IFZ44s47v/m88847uRTh5FMSpUAKISqFlCEhhBCiBqRZL4iI9sADD4QtttgibLjhhuHNN9/MbWltXNGJ71lSmcy3TQghykHKkBBCCFEniGi4/PLLh0svvdSiHs4+++y5La1NmuJIWj6lJ21/IYQoBSlDQgghRAWQdaI8yr1f7C+lRwhRaaQMCSGEEBVAHfXyKPd+6f4KIaqBlCEhhBBCCCFESzJGm+z6NWehhRbK/WpMynFF8P2yIkZDhgzR6GId6Nmzp00UT8KzaETZ8XLlqwuNVu5C5Xn66afDP/7xj9x/olVYfPHFw6+//mrr8bBej6gfSy65ZPj555/Do48+GiaYYIJcqmglll122fD999+Hhx56KEw88cS5VFFNVlhhhfDtt9+G+++/P/zzn//MpaYjy1AdWHDBBXO/GpO0zh8k070D1kidwkKghGalrM3GAgsskPvVUXFu1Ofh5Wo0pScf+e5pow+8CCGEEPVGliFRFv3797fvffbZx76FKAeam3zKdqNy0kknmVVrr732yoyFJYv3WVQWWYYaB1mGhCxDtUeWIVEV6GCxHgafNJcnIYqRFUuLQ1kffPBBe4FlpdxShIQQQojSkTIkSoIO1ssvvxw+//zz8MUXX4RXXnklt0WI8shKRz2W+eHDh4ehQ4e2pzcyUoSEEEKI0pEyVEeyMtIMdLCwCAHlZqRciErQaPUgLg9WIf/fZb7RlI0stSNCCCFEoyFlqI5kaQSXDpcrQ3Dfffc1RSdMHUmRJK6XsTKE3/Eff/xhv4UQQgjRHEgZEiXx5ptvho8//jj3XwiffPKJpWUduRTVn0Z9Bmky/9Zbb+X+axwkw6LV0CCWEKKSSBkSJTFo0KDcr7+JLUVCNBvIfDJQiNxDhag/aQMAUpCEEJ1FypAoiTRlKC1NiGYBF7kksYKkzpcQjQF1URZSIURnkTIkUok7eu+++2744IMPcv/9zXvvvWcfIZoFl/t33nmng8x7RyuWeXW+hGgMVBeFEF1BypBIhZeLdwxxh8s3Cs5Ieb5tQmQN71RhFYqDJcQyHgdVEK2Hnn3jwLPQ8xBCdBUpQyIVXjCuEKW5w/kLiI6hRuVEsxDL9ZhjpjePWnS4tVF71zjwLPQ8hBBdRcqQSMUVoXxR4/wF9Prrr4ePPvrIfguRdZBr5BmZd8UoyRtvvNEhyly+/YQQQgjR+EgZEnmhY3jAAQfk/svPgQceqA6haBoOPvjgopYf9vnzzz/tt0ama4O3MWprWpvhw4eH9ddfP/zyyy/h5ZdfDosvvnj49ttvc1uFEKJ8pAyJvHz66adh6NCh9jvu8PHb/+f71VdftX2FyDJ0smOZLwT7sK865rUjbnNE8/Dhhx+acvPDDz/kUgoz1VRThQEDBoTxxhsvrytrIyElXojGR8qQyMu0004bnn32WfsMGTLEvumI0Kg/88wz7el8pptuutxRQmQTZBuZd9n2j3e4nn766Q7p008/vTrmQnSRESNGlOVqnbU65+9MtRVCNC5ShkRZaHRLtBreiZHsC1F5ttlmm/Dbb7+FZZZZJiy00EL2Gxhw2HTTTcOiiy4aevfuHR577DGL8Oiucd99911mAplkwYIlRCujGioKQgcw2QmMR7jUQRRCCNFZLrjggjDuuOOGhx56yBSgccYZx9J//PFHm7P68MMPh5VWWimcdNJJpvz4+ydLER1LeU/qXSpE/ZAyJArCiydp3o8b7eQ2IYQQolR4h/BOSVpPll566TDbbLPZIscTTjihRTbFMuRKUFbePVxbKWXVu1SI+iFlSOQl30iVRrCEEEJUCleIwL/PPvvs0KdPH7Mcvfvuu5bOJ2tKg18b3/vvv38455xzwgcffJDbKoRoBKQMibzke+lk7WUkRDl4Z6wQpewjhCiOKwsO/7OO11VXXRVOO+20cMopp5hSNNZYY7Xvl8X6R5kHDx4cLr744rDuuuuGrbbaKgwcODB8//33uT2EEPVCypAQQkSUouxrQECIyjDRRBPZ94svvmhBEeD333+3b8LXs4YQobR9XS/Iav0788wzw1prrWVufy+88EI48sgjw2qrrRYOOeQQi1aJG6AQovZIGRKjkeXRNyGEENlhpplmCmuuuWbYb7/9wnrrrWfR5GaeeWb7feihh4bNN988LLjggrm9swfvUVfe5p9/fluw+a677gpHH310WGSRRUzxu/POO8MOO+wQ1l577XDuuefa2ktCiNoxxsiKqh6vKBlCnwJrC9HAxw29EM3IwgsvbKPSTz31lLnqCJEFCD/966+/hieeeKI9Qluj0uzvkSWXXDL8/PPP4dFHHw0TTDBBLnUUWL/uvvtuc5ljvSXuBcEk5ptvPlMSV1hhhXbrWT70Hm58ll12WXOJJGrixBNPnEsV1YS6g2X5/vvvD//85z9zqenIMiTKIqk7qwEWzUpS1iEtTQhRPeI657/j76zXSRZ6xvp1yy23tC9u/sgjj9i8onvuucc6dD169LCByDXWWMMCMAwbNix39CjyvYezfm+EqBVShkRZaPE40SqkdTCk/AtRebxexZ13/x3XOX6T7ml8x9uzSvIaxh9//LDqqqtaRL2bb745bL/99mHGGWe08OKXXHKJudOVEoDB75cQojDq2Yq8sOjdq6++2uHjDWsy/aeffrJ0IbIMcpyUbSeZLpmvL+rkNR+xUpCm5LgilHz2WZOFYuX17VzrdNNNF7beeutw4403WiQ6IuvhNucBGFZfffWCARikEAlRHM0ZEnkZMWKEmeiLrfSNtQifzEkmmSSXIkQ2QeZ79eplk7gLgczjwjLZZJPlUoRoLLI0Z6gS0JVJU6AagUJzhkoheW3k9eCDD4bbbrstPP/88+3R91CcUI569+4dpp9+ektr5PvSSmjOUO3RnCFREbp162aTx4vBPuwrRNZBjnv27Jn7ryNxp0IyL0Rj0cwd/uS14UZHSG4iz2ExIhKdu9FdeOGFFr4baxLzkPDwEEIURsqQKMiKK65o325A9G/wziH7aORJNAvLLbecyXMs60CaW0nZR5HlhBD1hDaqe/fupvjcdNNNHdzosBgdddRRNveIEOXPPPOM1jESIg9ShkRBll56aXMJ4kNnMA6g4P9j/hWiWVhmmWXCP/7xjw6y7pDGNvYRQoh6Eg9C8vu///2vKT533HGHzSfCgo0CxP8EYSDwwnnnnWchvIUQfyNlSBRk8skntwXvYstQ3ADT+BbzxRQiSzAPKJb5GCxDkvnKkHZ/hRBdh3lJzB3Cje766683NzrmECXd6G699daC0eiSqM6KZkUBFMRoIBKu8PD7f//7X+jfv7/977CdjiGrhm+wwQa5VCGyj8v8SSedlPry32uvvcLGG2+c+0+IxqTVAig0Ml0NoFAK/t72NisetPRtuM4RdGHQoEHhhx9+sG0TTjiheXewwCsDPbj/+v4Q/xadxwMoiNqjAAqiU8QNH799DoX/D95Ask2IZgK5Xn755c0dznG5B8m8EKKRiBUWvuP2CviffRZYYAFzo7vrrrvMjY5gMb/88ku48847w3bbbWdudOeff374+OOPc0d2bPvIg48QzYYsQ6IkWCH75Zdfzv03ivnmmy9ceumluf+EaC623HLL8OKLL+b+G8W8885rk5RjRUmUB6+cZGdNVB5ZhhqHWliGHK9fpdYzFB/mFPHxuUTMjZx//vnNWkR4YqxHomsotHbtUWhtUXEQqiRpaUI0C7FF1EHmUYQ0htR5pAgJUT28fsX1rFB7RTS6bbfd1sJwX3TRRaYAobDhUnfEEUdYNLrDDz88DBkyJPz555+5o4RoLqQMiZJIcw2Su5BoZnCVS0aUa8TIiVLMhBCFKGUAgn1wozvssMPC3XffbYrQQgstZNZF5hnlc6MTohmQMiRKgkg0c8wxh/2m88VvRpSEaFaQ7znnnNM6Ccg8v6eddlr7XUrnolYkyyLlSAjRFVjUtXfv3uGCCy6wRV1RhOgD4EZHWt++fc2ahJKkRV1FMyBlSJQMI+VA58sXYxWimWGdLcBChPwTaamRFKE0Gr18QojsgBLkbnSE5V5jjTXMje7ZZ58197lVVlml3Y2unEVd40EbDeCIeiNlSJQMChAdLRou5k6oARPNDjKPIoSs4yInmRdCtBq0e7z7WX8NxYdodLjT8f9vv/1mFiIWdV133XVLdqPzQRvPW4h6ImVItFOsozfzzDOHWWedNfz73/8OM8wwQ7tiJESzgszPNtts9plxxhn10hZCtBzJdg/LEIEWsBThRoflCBfiDz/8sN2NDte6Utzo4n6E+hOiXkgZEu3k6+jFDRSuQvHEcnUORbODRQhLKC5y0OgvbHUoRCshea8tfr/9m7mVKD633nqrKULMNWLOEW5zsRsdbnVp0ejIx/sR6k80Jq1Qx6QMiaLEDRRuQ5ovJFoJFCF3EYVGf2F//fXXuV9CND/qQNeWZDsYf/fo0cOi0KW50Xk0OhSmTz75xI4BjpNC29j4M25mtOhqHdh0003Dq6++2qERUINQfQgTij9zK1TsRmOzzTYLr7zySu4/UQ2Q67/++su+GYUVrU0rLLrKOzML7XktF11tNJg/dPvtt5tC9Omnn1oaz4z3McEY8DRphXuiRVdrDwOZWnS1gUERglj5kSJUfeIOou53bXnttddyv0S1cEVIsi1ahVjehw4dalYIUR06267EbnQMRrobHe9jrEe40WFNyudGJ0qDfuUyyywTRowYkUupDJ4vimwzv1tkGaoDjIiARm9rh99z/JizMJLYbCy88ML2onvqqafa594IIapHK1iGHLoxKEOzzz57Q15rK1uG0iCowqBBg8xa9NJLL7WH5EZxQlniM91001las1BtyxBKCxH9uKeTTDJJLrUj1JNy+z/ku8MOO4TrrrsuTDPNNEWP78w5CtGV/GQZEiKFWO+PfwvRTEi2RaPhMllMNjsru3SW+Ej2s8GEE07YIRrdNttsY8oPLnVYj9iGNQn3up9++il3VDp65n/fA68H+eisUlHOcZ09R77n2Nn8ykXKUB1Q5a0PcaWqVQUTo5DM1w6XbaxxbhEVop64TMbtLi5tJ598sgUnwXKy7777trv4ML9wscUWM0sKc2z5vd5664WXX37Z3EGBfQ844ABbGBlLwmOPPda+rVHwdo9vrl3t4OhgDcKiMXDgwHY3uvHGG69kN7p87/Jmvdfcg2uuucbWdML6u9pqq4Xnnnuu/d6gWC6xxBJhnXXWMU8MT//999/DmWeeGXr16mX1bb/99gtffPGFbQPqTr5843t5ySWX2DPCYsQ2lFnmfi266KLh2GOPNQsobvFJ1zost1jHOKe73g0YMCD06dMnrLzyyuGRRx4x6xPnXWmllcI999xjlu1aIWWoDnhYalE/9FKqLZL5+pFcFV6yL+pFLHt0nOggXX755WYBoBN1+umnd5BXOsj9+/cPd999t63zddxxx1mnDo455hiLnPi///0vXHbZZeGFF15o7/g1Ct5R94Wb44676uEoXEnkHnk0Op73IYccYoM5dIiRA9YyIhod1qQ4Gl0+/F43033mWlAYUUD23nvv8OCDD4ZzzjnH1nhyqCN33nmnrQd5xhlntFvWTjrpJHNJPO+886y+UY84lnrn+d50001hr732Cg888EA499xzzS0uhudwww03WN2dY445TLE566yzwp577hnuu+++sNZaa5mbqt/z+N7Hss9vPu+++2649NJLLYjGiSeeGF5//fVw5ZVXmkLEc5Yy1OQ0U+XMCnFFhOT/orpI5mtP2gsJJPuiXrjs4cd/7733WicKywBzHDbZZBObT8EItVt4mKtAh4ztWIbef/9924YSxEiyb59iiinCFltsEf7xj3/YcY1GXAf5zUf1cBRp92KiiSYyiwFhuH1RV3ejozOPJcLnxxRzo2uG++zyw1yr66+/Puy2226hZ8+eYdxxx7WFwbk3LvvUBeoLliEWwWVw4ZtvvrH6Rn1hUGHSSScN66+/fnj88cfNQvvDDz+YkrPrrruaRwGWuZlmmsnyZY4v52dfFCbWjJpnnnnsfH7Ozz//3Moy11xzWVqxe04dJk8W56WsWIcpw4YbbmhlcwtSLQOiSBkSLYE3Jv7tJP8XolnwF5I6XaJR8PYW9xk6RITcZ/Qfi8DOO+9srm+MWLvMTj755PYNdJA5HuvP8OHDLY2One/LPJRGVYac/fff30bjhw0blksRae1T/F6efvrp293osFbgokU0umeeeaZ9Uddmj0bn98jdzv71r3918LYgLXkfqQ/sgzL05Zdf2r3Bhc7dp6lvDCpgffnss89su+cb33/PG0VokUUWCfPOO297PZtyyinNgod7G+6sgwcPtnzi45OQl5edQBL89qAik002meWNMgY+KFILpAy1MIUEttbUqizJBiP5vxBCiMrjnSqg00Mn6Oabb7ZOLB8iffKhY1SoXSYfFCNgRNrhd6N3hhldZ84F7l5bbrmluSURYayR3sWNQNrzJw1rSOxGx6KudOYJ2x270WFBSt7TZrjHWE24DpTpWFHg3hRSHLp162b74FL69NNPt9c3FMqppprKIq3F+SbvP9sOPvhgi0yJZSq22Cy33HI294c5QLiuYuHxiI7s5/eddOB//6Sdx7/TtlcTKUMtDILmwldvain0ojloFNkVQhQnbuOnnnrqsMACC9icBuZ/oMS8+eab1lErZTR4hhlmCLPOOquNVn/11VfW+b3qqqtqOpJcKnGn7uyzzzb3JZQ55jjReVx11VXDQQcdZKPqPh9KjE4sP9w/XKw8Gt3WW2/dwY0OF7sdd9yxQzS6ZuhjYIkhOALzdAgygrLx9ttv23UXkn3qG4oj9waFBzl75513TBmi7uFa5/kSpCTOl+3cO8LWH3XUUTbHD/dE9sFCSzk4N+6ufPOhfmL1YR4R50JhxQ2P+UlO8nnwf5zG71q+46UMNTHFBMkb6a4IXHys/07LL5lW7H8hipFsTJN0VabKOT5t387KeFfLLUQWoGM19thjh4033tg6Yoz4e/AE6kBa/Y7TjjzySJt7tPrqq1tkLCZdu/tNIxGXeb755gsHHnigWTaY6E7ULjqLRM7aZZddrBOPgvjee+/ljiifVms/cKNjLgxudLggIg+4WaFYE40OuUC2sIQ0uuWwFLDQoNgQSZG5NSjSzAkqBpY0XOeYW0cERuQwnm9FvrjPkY6Vh2/qVwyWOeoaUelYJ+qXX36xACdYh7B47rHHHnYO5g+RH+v7MDcJN8c555zT6nsaaf3Q+P9ayLQWXa0DHu4WU2W58LiKdQK7SiXPkZZXV9I6i99zLbpaHyq56KrLRSXlw6lEno2Shxa6bW1aadHVRqfQoqvM12ByO6PtKEHUfZS6ueee2+bHEGYY9yhRGtw/XLLorN9xxx0dFnXFYoGyhIKEJcnbWG9vK9Hu5qPai65Wq+xdybfSZSo3Py262sSUKgiYOpmUWijSCoIVwzGMOHioxVJJ7kujzqJpjCIQJhEwVxMBxtOSx6RdF2nllEO0Bi4XSflAfpng6WuVlCI7HIPSwEsKSq1f5B3nj8wzqkteuBGwzesBaYQPdTeGYuVie6nlEKIZKFYnitHV4+sJ0fD69etnczFoO1jnhTkeuB9hPcKNjjWYUKRiN7osX3MlSLt+bztRNtyNjvvqbnQfffSRBWGgXcaaxFwj+jve3uZrd+t9r+PzF7ruStPVfCtdpmpcoyNlqIVJEyxPKyR0ycoY78so19FHH22RSvCBJhwqabg0ELbR00oR6mpVcJF9CskpaaXKTlKWS4W8PX8i/NBpwRWACdIbbLCB+VKzFgN+66QRMtRdeIqVq5RyC5ElitWzUmU+Xz6NXmcod7Ls/n+cjjUI9yfWiWHdFdyV2I6VAxckOvGnnnpqeOutt9rzjI8H/z+Z7uRLzxppz5y05D0h4qBHo8ONjkFZ3OiYL4P7HMomLpt4jcRrXMXE56rHffXr8t9J4u1O/H9ny+bnSju+lLRi/yfx7XwX27fSSBlqEmIh6gqlHJ9WGR1CONKg0IjjH0oITA/rGKcVg3IUOo8QhShVdkrZL1+d8HQmcCfl29Pwzc4n83G+pdQ7IbJKvnrmcl+sjjlZfScwEJIsu/8fp/tv5lzg4oPig4UZRYiwx7xLCRSx0UYbWShjooN99913dozfK/Lgd/J8kC+9WfDrS14j//MMsNKjAN111102p4UgHnjPoChtt912NlDL2kZp0egc8vJtuDe++OKL1tZX874We254HaRds5N2LHnmu8YkaceTljw+3i+tzGn5xPh2vovtW2mkDGWQpAAS471Xr15hscUWCyeffHIutSNECVl55ZUtkkihCoAAPv/88xbxhvyw5vgkOsz2zL2JXe9wMyLNVwrefPPN7Rt/dZ+n42nkRxrnJxIJI19MvGOinodddPc+XgCsSszkPCEcl11kHnlGplhZOw2XeRZqLAYyz4vQZR5lBpDHRRddtN2NDqgHuON5ZBxC5DIAsNRSS5mbKS9G0vgmDZlnOzJP/UTmmUOA3HtHhjxx2WB+APtwrBDNTtz5SYP0Qu+rrFDoGopdHxHE/u///s/aPFzMfWFKVuvn/cg6O3vvvbctQksbA4XuZzNT6vXhhrjWWmuFiy66yKKcsf4ObnT0j1CGcLHDjQ73/jgCmuNyiWJKSG9CS3PvqyWrxa4LRS/t3IXKQ55dlYdCx5eTt5ez3GuoJFKGMkgsZPjA0iDimoYpHZNvDPtSUVnPABMxEwiTQpoUNjpl+NoyWsJIFPmzTylCydwIwDXIA0R4GhN5SeP8lJfGnAaeSChJJY5J3yhENEhCOMgOMn/KKafYCF+azIPLPFFvWKG7GEy0JewoMo88kr+7TCTlPvn/xRdfbAEK8Ol/7rnnbNE4XrJ8P/bYYybzbMeVbujQoeHqq6+2lywKFiO/rvgQ/YgwsYxQNvrikULUiuT7qtko5/qIyLXPPvuYGx3vZazRHP/ggw+GPffc0wIuMDjEu7UVBlRK6ZNAof1wo6PNpe1nAI33CdZ83OiIRududLTj8T194403wrvvvmvvCZ4F7fuPP/6Y21pd0q4nTY5Kka1S72E18XJ29hoqgZShDIMQU2kRFublEKVmnnnmyW0dBZ1FJgzSKcTMnkZS2FBAWBSPxbhYIZwRp3IpJMB0NmnMWY2b+PeMelHOGCaUEqLRF9cTwnGZ/+KLL1Jl/uGHHzbF5rTTTgtzzDFHLrUwjO6x2j0yjzyWK/Np8h6/ZFzm6cgwAsnILq4ulNXhvIxYSuaFEIUgOiCeEwzaMJCDZQhFiXbm2muvtbaE9uWaa66xAc1mpVA/I6aU/bCu4AWA4kPoc3ejwzJ0yy23mPWIRV2xHDEgx3135Yj8GUTeaaedinrfVIJSrztJqUqU0wiKUq2QMpRhEGKUCSovVh/iuePuE3P66aeb602yw1gIOoQOv3GLS1aKrlQSJpwDjTUuRLglMaKCmdkrJhYsIdJA5g8//HCTeYIVpMn8iiuuGOadd95cyihcZtNkN5Z53FKSLg/JF0Yp9SE+hsEK9qGTghuoyz2R7zxClGReCFEOtCkMXPIuxeKM8rPJJpvYIposqonHBdYi5hwx4Oju7DFpbVerE7vR4WWAIsR6RswlYqFf3OiYr+VuiQ7uzltttZV5tiQtc7wP/FMvyj13PctaCcopv5ShjENDhhkXtxvmMbAgloMgHH/88TZZkPCSpRKbej/44IP/b+/uQ6uq4ziO/4pkGkk+kEwoS6cowbR/JFKIMkwsLZIQTbNUSsRFENEfSgbJ8LEQkRGF5AMlmKT+oahbwsrZ/mkgKUoq5TQdCxZaqfhH1Ofbftfj6dw9ec/Dvff9gsPdzt3uxjm/c87v+3v4/qzyqc/ya1VooS1fyPxcHy98Y4260aoFXvvVUq6uZ7/p8/3PR/0e4PkyrwmxSjsbfPBoVXe17GkseJAvs8EbpC9nwTLf2tpqZVQ/p14oCaabV5mP+oyg8D5VWESth8paFCz3ymxEeQfQW8H7kIwZM8aGy2mIuXrGlYRBQ27V0637pNbYUZ1Aw3WDvRrI7+GHH7ZsdOod0jA6rVGk50LwmRM8hppvqoYuTQEIBku6x/sNyejNsSYYKkL+BOtVKXx9y7haltXyo/26OPWqVJ1r1661FiJVHsOChcVf0FoBW5VDBUJaVVjpPPWe5l5o6Jr/HP0tv46QF04frNfg16LgShPNNc5W//9PP/1k8yX8/y3MmUA+6mVRmVd50XjvcC+Oyrwe+JqPEy7z/uf8qy9v6mXSHB4lW9BaHyrzKoMjR460oXgKrvSzaghQ66ufTyS+zAf5z/V8mdf/dOnSJXuQ+nIv+oyozwGA3lJlXclblKRI90ANSdd9Ufc4NYxqGLpGkuhep+HG3dH9MniPLUfBYXRKEBWso4SPjbK7aQij5kb7JDnINp6+RUgVLV18etUQG11wyk6llgh9Lf59verC1fhXXcRa/TgoWGnzF/T48eNtAUml7pw8ebItWCZK96nP0CRvVRY1PlafHaTP8JsX9bUCNN1clMFLQ5603/+/4heoBMIUiKic62Gv8fHqCVKCAk9lSFnhlK1NP3fkyJHOd26V93C515A6jQdXJUEPPA110M+ozGuNLCVj8GVePbBR1013tO6QKika2qfrSuXeB1Uq7z39HAAI6ureoZX39Zzdvn273S81D1hDgdXwo4ZP9RZpXUA1+ERlTpPg/a7caQ6WEuWEh8EFz4Gvv2hekdaaU8My0qGy25Nn613//hBP4IT5lNMaIpMmf+rTuNHpbyf5d/0x1xAlbuzJ03A2PTw0ljoYuPRV3GU3jvLpP7Orzy7k3y30MUdxUUOVeu+VxdMPcUY61FipQEMZJ9XTXEh9uWeost7c3Gy9RvqfNC9YnzFw4ECbb6l5RppnHHXfiOPemHXBe7fmCmleani+kH/ffy06zmr09b+v75U0R8cZ8dMwUS0N09DQYI0CXSEYSsGdBkP+wuor//eDqqqqbKJgb93p/5IUgqF0FaJifidlzf/9IJV5tZSW6pBMgqHyRjCUHXEGQ+LvjX25RyqJS319vc0zOnXqVK63WnNl1GukrbKy0vaVMx1b0bqJOk7B3nx/7D1/HsL7kTydA5VvgqEMykrPUDkhGEoXFfPkcczLG8FQdsQdDBWKhnOpt0jJjTQ3U/S81L1EvUVaMHrAgAG2vxypuqxeNG06n8Et3z4dRyWs8BlFkTx6hjKKYCh5BEPpomKePI55eSMYyo60giFV7/ryvFOvhxYdVWCkBV2VOEafpeFdCohmzpzpJkyYQKKjgO6O9VNPPWUJLDRvm2FyyejNMDkSKAAAUEJo44T0teFP81yUKEYJk7Q0R3ABUi0PEFyA1K8bmE+5lEUaWYsbwRAAACWEihkKRb0YWmRUC5Bq7TYFQsOHD3cXL160BUjVS7RkyRKbc6RhYZ4PgnpSFgnekTaCIQAAAETywcqDDz5oC5Du27fPffLJJxYIadifhp9rqYBp06a5Dz74wNZP0xDdniJ4R9oIhgAAABDJByv+VXOFJk6caAGQki3oVfNyte6h5hktXbrUvfTSSxYwXbhwweYgAVlGMAQAAIDb9GT42n333Wc9RJo/pGF06jl66KGHbC7RZ599ZkHRm2++6fbu3WsJBIAsIhgCAADAbbobvhYOljSMTnOK9uzZ47Zs2eJefPFFC5ZaWlosGcNzzz1nyRi04KtfzwjIAoKhFDFpEAAAZFlUXUX78gVL2q/U2ytXrrRsdLW1tZadTsPo9P2yZcssKcPmzZvdL7/88r/5RdSNkDSCoRR11+oClCoedvHId1w53gD6Kqqu0tP6S//+/d306dNdXV2d+/rrr11NTY175JFHXHt7u/v888/dyy+/7BYtWmRD7K5evWq/Q90ISWPR1RT4BUCRPBZdTYdfADSKzge3ob7z5VmTlLU+SPhYNjU1WYUE5YVFV7MjrUVXs+zHH3+0dNyHDx/OzSWqqKhwTz75pJsxY4b1JPXr18/2lwIWXU0ei65mHMFQOjju6dGCffkQCN0ZHT9t+YLKL774gvH5ADKlurraLV++3B08eNCtXr3aTZ482RrM6uvr3dtvv23zjTZu3OjOnj3bbZru8H2vq2dKV++hfNEzhLKi4k7PUPKCx51zkAyt9fHWW29Zr8CuXbtsoUR/7DkHpY+eoeygZyha+D7U1tZmPUVKz625RGrEUW/32LFjLWOd1jHK18Kf9XsaPUPJo2cIyMPfLHXjRHKCDyl9zfGPR/C4amjis88+a5Wwjz/+2FpX/XnIcqUBhcE5RtaFy2hlZaVbsGCBNd5oPtGcOXPc/fff706fPu3WrVtnc4/effdd19jYaMkYvHAgxPMFvUXPEIBEhR9cAArHX1/0DGUHPUP5dfU80HsKeo4ePWq9RceOHcsFQUOHDrWeIs0vGj16tC0EG5alZw09Q8mjZwiIoBsj0kcgBMRH1xf3OhSLrp4Hek+B/JQpU6x3WwkX3nnnHRs2d+XKFZsPOW/ePDd//nz35Zdfuo6OjtvKPtcCeopgCGWDSjiAUqeWc+51KEUPPPCAe+WVVyzw2bZtm309aNAgd+bMGffRRx/Zoq4aRvfNN99Yr6jvGSIgQncIhgAAKBFfffVVt9m3gKwLBjDh3h4ZN26cBT5axHXDhg3We6T3NAztvffes4QLmmd04sQJW3YA6ArBEAAAJeLTTz91v/32W+d3yAp663oneLy6OnZai0jzcdavX+/2799vAdKjjz5qc0XUMPDaa6+5uXPnWk+SFnoFohAMAQBQIq5du+Y2b95M71DGMFQrfkOGDLHAZ8eOHTaU7tVXX7WhdefOnXObNm2yZAtaw+jQoUPuxo0bnb91SyHOEee5OBEMAQBQIvr3728LWbLQbnZRYY6fMswp8FEWOi3eOnXqVOtFampqssVelaZbi70eP348d60Ee6D6eo7oASxOBEMAAJSIhQsXRqYZRrp6OuwLhXXPPfdYavM1a9bYMDrNJ6qurrZU57t373aLFy+29Yy2bNniLl++3Plb/52jfAGR9mtxWJ/mm+C2+BEMAQBQIpRqeMSIEZ3f/SeqsqZ9bPFtwWPsv0Y8ujq2es8Hn8o8N3v2bLd161a3c+dOt2jRIjds2DD3888/u7q6OvfCCy+4ZcuWWdCk4ab5gtYffvjBrVq1yn344Yfu6tWruZ/jHBcvgiEAAEqE1mXRJHK1iMvNmzcjK3XaxxbfFjzGiFdXx1jvRQUpI0eOtMBHw+g0x05puTXEtLm52a1cudI9//zzFvC0tLTY/LvgZ2jOkXqFlMlu6dKl7vz58/YznOviRTAEAEAJefzxx3ND5RQcRaEVG+WiqyDl7rvvdk888YQFPuoRWrFihXvsscesZ2jv3r3ujTfecLNmzbIsjRcuXHB//vmnpe9WMKRr6PTp0zbU7vvvvydpSRG769+TyR0RAIASMmnSJFt4UvK1jiM+Ucf8u+++c/fee2/ndyg0He9C9c60trZaz8+BAwfcr7/+mvtsDUG9ePHi/wIfvVdTU2PZ7CoqKjr33qL033/88YcFUgMHDuzcizg988wzlmK9oaHBDR48uHNvNHqGAAAoMWrd9hVDAqHkhY+5zgeJLeJVqEBIFPQsWbLE7dmzx+YTaRHXAQMG5IbEecFrTOm733//fff777/bPqSrN+WBniEAAIACUtWqkJVzpE/rFb3++us2hC4ofK6rqqpcbW2tGzVqVC4Afvrppy3ZAj1DyaFnCAAAICUEQqWnsbExcv0uzTsSf84VNGmu0bfffpvrRaLfIXlR12C+80AwBABACfEPfL2yZWNDcfv777/dvn37cmsLiSrb2vSe+Fedb80PUlZHrWsU7klCMqKuu3yNFARDAACUEP/A95U1tvQ3FLfjx4+7jo6OXAVb51RfKwDyPUN61T7/vWhYnOYRKSDyv6tXtvi2vmDOEAAAQExUzSIgKk7+3LW3t1uGOaXWvnHjhrt+/bq9avvrr79u26dXzVU5efKkZQ/UHKG2tjYbMsecoeT0Zs4QwRAAAADQSz5YCge84e9JrZ08BUNXrlxx9fX1BEMAAABAHMKBjxfc74MhJI9scgAAAEBMogIhCe6fMGEC60ylQMe9X79+nd/lR88QAAAAELN8vUgorN4eZ4IhAAAAAGWJYAgAAACIka9uq8eCqnd8gse3p71DBEMAAABATFTVZnhc8np63AmGAAAAAJQlsskBAAAAKEsEQwAAAEBMGISVjp4ed4bJAQAAAChL9AwBAAAAKEPO/QOZNwvmpj9s5wAAAABJRU5ErkJggg==;" vertex="1" parent="1">
          <mxGeometry width="835" height="576" as="geometry" />
        </mxCell>
        <mxCell id="lw6XrF9lsO6SJeytqH2C-2" value="" style="endArrow=classic;html=1;rounded=0;dashed=1;dashPattern=1 1;strokeWidth=2;" edge="1" parent="1">
          <mxGeometry width="50" height="50" relative="1" as="geometry">
            <mxPoint x="374" y="508" as="sourcePoint" />
            <mxPoint x="504" y="282" as="targetPoint" />
          </mxGeometry>
        </mxCell>
        <mxCell id="lw6XrF9lsO6SJeytqH2C-4" value="" style="endArrow=classic;html=1;rounded=0;dashed=1;dashPattern=1 1;strokeWidth=2;" edge="1" parent="1">
          <mxGeometry width="50" height="50" relative="1" as="geometry">
            <mxPoint x="374" y="542" as="sourcePoint" />
            <mxPoint x="504" y="554" as="targetPoint" />
          </mxGeometry>
        </mxCell>
      </root>
    </mxGraphModel>
  </diagram>
</mxfile>
